<?xml version="1.0" encoding="UTF-8" standalone="no"?>
<svg
   xmlns:osb="http://www.openswatchbook.org/uri/2009/osb"
   xmlns:dc="http://purl.org/dc/elements/1.1/"
   xmlns:cc="http://creativecommons.org/ns#"
   xmlns:rdf="http://www.w3.org/1999/02/22-rdf-syntax-ns#"
   xmlns:svg="http://www.w3.org/2000/svg"
   xmlns="http://www.w3.org/2000/svg"
   xmlns:xlink="http://www.w3.org/1999/xlink"
   enable-background="new"
   width="4.3899999cm"
   height="5.0799999cm"
   viewBox="0 0 43.899999 50.799998"
   version="1.1"
   id="svg8">
  <defs
     id="defs2">
    <linearGradient
       osb:paint="solid"
       id="linearGradient12300">
      <stop
         id="stop12298"
         offset="0"
         style="stop-color:#87aade;stop-opacity:1;" />
    </linearGradient>
    <linearGradient
       osb:paint="solid"
       id="linearGradient19224">
      <stop
         id="stop19222"
         offset="0"
         style="stop-color:#0b1728;stop-opacity:1;" />
    </linearGradient>
    <linearGradient
       id="linearGradient4470">
      <stop
         id="stop4466"
         offset="0"
         style="stop-color:#002255;stop-opacity:1" />
      <stop
         id="stop4468"
         offset="1"
         style="stop-color:#d5e5ff;stop-opacity:1" />
    </linearGradient>
    <linearGradient
       osb:paint="solid"
       id="linearGradient4462">
      <stop
         id="stop4460"
         offset="0"
         style="stop-color:#80b3ff;stop-opacity:1;" />
    </linearGradient>
    <linearGradient
       y2="28.994514"
       x2="21.880211"
       y1="39.792095"
       x1="22.091738"
       gradientTransform="matrix(1.1105435,0,0,1,-0.49830745,-1.1804446)"
       gradientUnits="userSpaceOnUse"
       id="linearGradient4540-7-3"
       xlink:href="#linearGradient4470" />
    <clipPath
       id="clipPath15655"
       clipPathUnits="userSpaceOnUse">
      <g
         id="use15657">
        <path
           transform="matrix(0.99786128,0,0,1,-67.227312,-79.512509)"
           style="display:inline;fill:#0b1728;fill-opacity:1;stroke-width:0.16493505"
           d="m 89.368447,130.31249 -21.997045,-12.7 -10e-7,-25.399998 21.997045,-12.700001 21.997044,12.699999 0,25.4 z"
           id="path15803" />
      </g>
    </clipPath>
    <clipPath
       id="clipPath15666"
       clipPathUnits="userSpaceOnUse">
      <g
         id="use15668">
        <g
           clip-path="url(#clipPath15655)"
           id="g15799">
          <g
             id="g15797">
            <path
               transform="matrix(0.99786128,0,0,1,-67.227312,-79.512509)"
               style="display:inline;fill:#0b1728;fill-opacity:1;stroke-width:0.16493505"
               d="m 89.368447,130.31249 -21.997045,-12.7 -10e-7,-25.399998 21.997045,-12.700001 21.997044,12.699999 0,25.4 z"
               id="path15795" />
          </g>
        </g>
      </g>
    </clipPath>
    <clipPath
       id="clipPath16065"
       clipPathUnits="userSpaceOnUse">
      <path
         transform="matrix(0.92518243,0,0,0.92716538,-60.732117,-71.87125)"
         style="display:inline;opacity:1;fill:#162d50;fill-opacity:1;stroke-width:0.16493505"
         d="m 89.368447,130.31249 -21.997045,-12.7 -10e-7,-25.399998 21.997045,-12.700001 21.997044,12.699999 0,25.4 z"
         id="path16067" />
    </clipPath>
    <clipPath
       id="clipPath16069"
       clipPathUnits="userSpaceOnUse">
      <path
         transform="matrix(0.92518243,0,0,0.92716538,-60.732117,-71.87125)"
         style="display:inline;opacity:1;fill:#162d50;fill-opacity:1;stroke-width:0.16493505"
         d="m 89.368447,130.31249 -21.997045,-12.7 -10e-7,-25.399998 21.997045,-12.700001 21.997044,12.699999 0,25.4 z"
         id="path16071" />
    </clipPath>
    <clipPath
       id="clipPath16073"
       clipPathUnits="userSpaceOnUse">
      <path
         transform="matrix(0.92518243,0,0,0.92716538,-60.732117,-71.87125)"
         style="display:inline;opacity:1;fill:#162d50;fill-opacity:1;stroke-width:0.16493505"
         d="m 89.368447,130.31249 -21.997045,-12.7 -10e-7,-25.399998 21.997045,-12.700001 21.997044,12.699999 0,25.4 z"
         id="path16075" />
    </clipPath>
    <clipPath
       id="clipPath16077"
       clipPathUnits="userSpaceOnUse">
      <path
         transform="matrix(0.92518243,0,0,0.92716538,-60.732117,-71.87125)"
         style="display:inline;opacity:1;fill:#162d50;fill-opacity:1;stroke-width:0.16493505"
         d="m 89.368447,130.31249 -21.997045,-12.7 -10e-7,-25.399998 21.997045,-12.700001 21.997044,12.699999 0,25.4 z"
         id="path16079" />
    </clipPath>
    <clipPath
       id="clipPath16081"
       clipPathUnits="userSpaceOnUse">
      <path
         transform="matrix(0.92518243,0,0,0.92716538,-60.732117,-71.87125)"
         style="display:inline;opacity:1;fill:#162d50;fill-opacity:1;stroke-width:0.16493505"
         d="m 89.368447,130.31249 -21.997045,-12.7 -10e-7,-25.399998 21.997045,-12.700001 21.997044,12.699999 0,25.4 z"
         id="path16083" />
    </clipPath>
    <clipPath
       id="clipPath16085"
       clipPathUnits="userSpaceOnUse">
      <path
         transform="matrix(0.92518243,0,0,0.92716538,-60.732117,174.32877)"
         style="display:inline;opacity:1;fill:#162d50;fill-opacity:1;stroke-width:0.16493505"
         d="m 89.368447,130.31249 -21.997045,-12.7 -10e-7,-25.399998 21.997045,-12.700001 21.997044,12.699999 0,25.4 z"
         id="path16087" />
    </clipPath>
    <clipPath
       id="clipPath16089"
       clipPathUnits="userSpaceOnUse">
      <path
         transform="matrix(0.92518243,0,0,0.92716538,-60.732117,174.32877)"
         style="display:inline;opacity:1;fill:#162d50;fill-opacity:1;stroke-width:0.16493505"
         d="m 89.368447,130.31249 -21.997045,-12.7 -10e-7,-25.399998 21.997045,-12.700001 21.997044,12.699999 0,25.4 z"
         id="path16091" />
    </clipPath>
    <clipPath
       id="clipPath16093"
       clipPathUnits="userSpaceOnUse">
      <path
         transform="matrix(0.92518243,0,0,0.92716538,-60.732117,174.32877)"
         style="display:inline;opacity:1;fill:#162d50;fill-opacity:1;stroke-width:0.16493505"
         d="m 89.368447,130.31249 -21.997045,-12.7 -10e-7,-25.399998 21.997045,-12.700001 21.997044,12.699999 0,25.4 z"
         id="path16095" />
    </clipPath>
    <clipPath
       id="clipPath16097"
       clipPathUnits="userSpaceOnUse">
      <path
         transform="matrix(0.92518243,0,0,0.92716538,-60.732117,174.32877)"
         style="display:inline;opacity:1;fill:#162d50;fill-opacity:1;stroke-width:0.16493505"
         d="m 89.368447,130.31249 -21.997045,-12.7 -10e-7,-25.399998 21.997045,-12.700001 21.997044,12.699999 0,25.4 z"
         id="path16099" />
    </clipPath>
    <clipPath
       id="clipPath16101"
       clipPathUnits="userSpaceOnUse">
      <path
         transform="matrix(0.92518243,0,0,0.92716538,-60.732117,174.32877)"
         style="display:inline;opacity:1;fill:#162d50;fill-opacity:1;stroke-width:0.16493505"
         d="m 89.368447,130.31249 -21.997045,-12.7 -10e-7,-25.399998 21.997045,-12.700001 21.997044,12.699999 0,25.4 z"
         id="path16103" />
    </clipPath>
    <clipPath
       id="clipPath16105"
       clipPathUnits="userSpaceOnUse">
      <path
         transform="matrix(0.92518243,0,0,0.92716538,-60.732117,174.32877)"
         style="display:inline;opacity:1;fill:#162d50;fill-opacity:1;stroke-width:0.16493505"
         d="m 89.368447,130.31249 -21.997045,-12.7 -10e-7,-25.399998 21.997045,-12.700001 21.997044,12.699999 0,25.4 z"
         id="path16107" />
    </clipPath>
    <clipPath
       id="clipPath16109"
       clipPathUnits="userSpaceOnUse">
      <path
         transform="matrix(0.92518243,0,0,0.92716538,-60.732117,174.32877)"
         style="display:inline;opacity:1;fill:#162d50;fill-opacity:1;stroke-width:0.16493505"
         d="m 89.368447,130.31249 -21.997045,-12.7 -10e-7,-25.399998 21.997045,-12.700001 21.997044,12.699999 0,25.4 z"
         id="path16111" />
    </clipPath>
    <clipPath
       id="clipPath16113"
       clipPathUnits="userSpaceOnUse">
      <path
         transform="matrix(0.92518243,0,0,0.92716538,-60.732117,174.32877)"
         style="display:inline;opacity:1;fill:#162d50;fill-opacity:1;stroke-width:0.16493505"
         d="m 89.368447,130.31249 -21.997045,-12.7 -10e-7,-25.399998 21.997045,-12.700001 21.997044,12.699999 0,25.4 z"
         id="path16115" />
    </clipPath>
    <clipPath
       id="clipPath16117"
       clipPathUnits="userSpaceOnUse">
      <path
         transform="matrix(0.92518243,0,0,0.92716538,-60.732117,174.32877)"
         style="display:inline;opacity:1;fill:#162d50;fill-opacity:1;stroke-width:0.16493505"
         d="m 89.368447,130.31249 -21.997045,-12.7 -10e-7,-25.399998 21.997045,-12.700001 21.997044,12.699999 0,25.4 z"
         id="path16119" />
    </clipPath>
    <clipPath
       id="clipPath16121"
       clipPathUnits="userSpaceOnUse">
      <path
         transform="matrix(0.92518243,0,0,0.92716538,-60.732117,174.32877)"
         style="display:inline;opacity:1;fill:#162d50;fill-opacity:1;stroke-width:0.16493505"
         d="m 89.368447,130.31249 -21.997045,-12.7 -10e-7,-25.399998 21.997045,-12.700001 21.997044,12.699999 0,25.4 z"
         id="path16123" />
    </clipPath>
    <filter
       id="filter16509"
       style="color-interpolation-filters:sRGB">
      <feBlend
         id="feBlend16511"
         in2="BackgroundImage"
         mode="color-burn" />
    </filter>
    <clipPath
       id="clipPath16785"
       clipPathUnits="userSpaceOnUse">
      <path
         id="path16787"
         d="m 89.368447,130.31249 -21.997045,-12.7 -10e-7,-25.399998 21.997045,-12.700001 21.997044,12.699999 0,25.4 z"
         style="display:inline;opacity:1;fill:#162d50;fill-opacity:1;stroke-width:0.16493505;filter:url(#filter16509)"
         transform="matrix(0.92518243,0,0,0.92716538,-60.732117,-73.987917)" />
    </clipPath>
    <clipPath
       id="clipPath16789"
       clipPathUnits="userSpaceOnUse">
      <path
         id="path16791"
         d="m 89.368447,130.31249 -21.997045,-12.7 -10e-7,-25.399998 21.997045,-12.700001 21.997044,12.699999 0,25.4 z"
         style="display:inline;opacity:1;fill:#162d50;fill-opacity:1;stroke-width:0.16493505;filter:url(#filter16509)"
         transform="matrix(0.92518243,0,0,0.92716538,-60.732117,-73.987917)" />
    </clipPath>
    <clipPath
       id="clipPath16793"
       clipPathUnits="userSpaceOnUse">
      <path
         id="path16795"
         d="m 89.368447,130.31249 -21.997045,-12.7 -10e-7,-25.399998 21.997045,-12.700001 21.997044,12.699999 0,25.4 z"
         style="display:inline;opacity:1;fill:#162d50;fill-opacity:1;stroke-width:0.16493505;filter:url(#filter16509)"
         transform="matrix(0.92518243,0,0,0.92716538,-60.732117,-73.45875)" />
    </clipPath>
    <clipPath
       id="clipPath16797"
       clipPathUnits="userSpaceOnUse">
      <path
         id="path16799"
         d="m 89.368447,130.31249 -21.997045,-12.7 -10e-7,-25.399998 21.997045,-12.700001 21.997044,12.699999 0,25.4 z"
         style="display:inline;opacity:1;fill:#162d50;fill-opacity:1;stroke-width:0.16493505;filter:url(#filter16509)"
         transform="matrix(0.92518243,0,0,0.92716538,-60.732117,-73.45875)" />
    </clipPath>
    <clipPath
       id="clipPath16801"
       clipPathUnits="userSpaceOnUse">
      <path
         id="path16803"
         d="m 89.368447,130.31249 -21.997045,-12.7 -10e-7,-25.399998 21.997045,-12.700001 21.997044,12.699999 0,25.4 z"
         style="display:inline;opacity:1;fill:#162d50;fill-opacity:1;stroke-width:0.16493505;filter:url(#filter16509)"
         transform="matrix(0.92518243,0,0,0.92716538,-60.732117,172.21209)" />
    </clipPath>
    <clipPath
       id="clipPath16805"
       clipPathUnits="userSpaceOnUse">
      <path
         id="path16807"
         d="m 89.368447,130.31249 -21.997045,-12.7 -10e-7,-25.399998 21.997045,-12.700001 21.997044,12.699999 0,25.4 z"
         style="display:inline;opacity:1;fill:#162d50;fill-opacity:1;stroke-width:0.16493505;filter:url(#filter16509)"
         transform="matrix(0.92518243,0,0,0.92716538,-60.732117,-71.87125)" />
    </clipPath>
    <clipPath
       id="clipPath16809"
       clipPathUnits="userSpaceOnUse">
      <path
         id="path16811"
         d="m 89.368447,130.31249 -21.997045,-12.7 -10e-7,-25.399998 21.997045,-12.700001 21.997044,12.699999 0,25.4 z"
         style="display:inline;opacity:1;fill:#162d50;fill-opacity:1;stroke-width:0.16493505;filter:url(#filter16509)"
         transform="matrix(0.92518243,0,0,0.92716538,-60.732117,172.21209)" />
    </clipPath>
    <clipPath
       id="clipPath16813"
       clipPathUnits="userSpaceOnUse">
      <path
         id="path16815"
         d="m 89.368447,130.31249 -21.997045,-12.7 -10e-7,-25.399998 21.997045,-12.700001 21.997044,12.699999 0,25.4 z"
         style="display:inline;opacity:1;fill:#162d50;fill-opacity:1;stroke-width:0.16493505;filter:url(#filter16509)"
         transform="matrix(0.92518243,0,0,0.92716538,-60.732117,173.27043)" />
    </clipPath>
    <clipPath
       id="clipPath16817"
       clipPathUnits="userSpaceOnUse">
      <path
         id="path16819"
         d="m 89.368447,130.31249 -21.997045,-12.7 -10e-7,-25.399998 21.997045,-12.700001 21.997044,12.699999 0,25.4 z"
         style="display:inline;opacity:1;fill:#162d50;fill-opacity:1;stroke-width:0.16493505;filter:url(#filter16509)"
         transform="matrix(0.92518243,0,0,0.92716538,-60.732117,173.27043)" />
    </clipPath>
    <clipPath
       id="clipPath16821"
       clipPathUnits="userSpaceOnUse">
      <path
         id="path16823"
         d="m 89.368447,130.31249 -21.997045,-12.7 -10e-7,-25.399998 21.997045,-12.700001 21.997044,12.699999 0,25.4 z"
         style="display:inline;opacity:1;fill:#162d50;fill-opacity:1;stroke-width:0.16493505;filter:url(#filter16509)"
         transform="matrix(0.92518243,0,0,0.92716538,-60.732117,174.32877)" />
    </clipPath>
    <clipPath
       id="clipPath16825"
       clipPathUnits="userSpaceOnUse">
      <path
         id="path16827"
         d="m 89.368447,130.31249 -21.997045,-12.7 -10e-7,-25.399998 21.997045,-12.700001 21.997044,12.699999 0,25.4 z"
         style="display:inline;opacity:1;fill:#162d50;fill-opacity:1;stroke-width:0.16493505;filter:url(#filter16509)"
         transform="matrix(0.92518243,0,0,0.92716538,-60.732117,174.32877)" />
    </clipPath>
    <clipPath
       id="clipPath16829"
       clipPathUnits="userSpaceOnUse">
      <path
         id="path16831"
         d="m 89.368447,130.31249 -21.997045,-12.7 -10e-7,-25.399998 21.997045,-12.700001 21.997044,12.699999 0,25.4 z"
         style="display:inline;opacity:1;fill:#162d50;fill-opacity:1;stroke-width:0.16493505;filter:url(#filter16509)"
         transform="matrix(0.92518243,0,0,0.92716538,-60.732117,174.32877)" />
    </clipPath>
    <clipPath
       id="clipPath16833"
       clipPathUnits="userSpaceOnUse">
      <path
         id="path16835"
         d="m 89.368447,130.31249 -21.997045,-12.7 -10e-7,-25.399998 21.997045,-12.700001 21.997044,12.699999 0,25.4 z"
         style="display:inline;opacity:1;fill:#162d50;fill-opacity:1;stroke-width:0.16493505;filter:url(#filter16509)"
         transform="matrix(0.92518243,0,0,0.92716538,-60.732117,174.32877)" />
    </clipPath>
    <clipPath
       id="clipPath16837"
       clipPathUnits="userSpaceOnUse">
      <path
         id="path16839"
         d="m 89.368447,130.31249 -21.997045,-12.7 -10e-7,-25.399998 21.997045,-12.700001 21.997044,12.699999 0,25.4 z"
         style="display:inline;opacity:1;fill:#162d50;fill-opacity:1;stroke-width:0.16493505;filter:url(#filter16509)"
         transform="matrix(0.92518243,0,0,0.92716538,-60.732117,174.32877)" />
    </clipPath>
    <clipPath
       id="clipPath16841"
       clipPathUnits="userSpaceOnUse">
      <path
         id="path16843"
         d="m 89.368447,130.31249 -21.997045,-12.7 -10e-7,-25.399998 21.997045,-12.700001 21.997044,12.699999 0,25.4 z"
         style="display:inline;opacity:1;fill:#162d50;fill-opacity:1;stroke-width:0.16493505;filter:url(#filter16509)"
         transform="matrix(0.92518243,0,0,0.92716538,-60.732117,174.32877)" />
    </clipPath>
    <clipPath
       id="clipPath17248"
       clipPathUnits="userSpaceOnUse">
      <path
         transform="matrix(0.92518243,0,0,0.92716538,-60.732117,-73.987917)"
         style="display:inline;opacity:1;fill:#162d50;fill-opacity:1;stroke-width:0.16493505"
         d="m 89.368447,130.31249 -21.997045,-12.7 -10e-7,-25.399998 21.997045,-12.700001 21.997044,12.699999 0,25.4 z"
         id="path17250" />
    </clipPath>
    <clipPath
       id="clipPath17252"
       clipPathUnits="userSpaceOnUse">
      <path
         transform="matrix(0.92518243,0,0,0.92716538,-60.732117,-73.987917)"
         style="display:inline;opacity:1;fill:#162d50;fill-opacity:1;stroke-width:0.16493505"
         d="m 89.368447,130.31249 -21.997045,-12.7 -10e-7,-25.399998 21.997045,-12.700001 21.997044,12.699999 0,25.4 z"
         id="path17254" />
    </clipPath>
    <clipPath
       id="clipPath17256"
       clipPathUnits="userSpaceOnUse">
      <path
         transform="matrix(0.92518243,0,0,0.92716538,-60.732117,-73.45875)"
         style="display:inline;opacity:1;fill:#162d50;fill-opacity:1;stroke-width:0.16493505"
         d="m 89.368447,130.31249 -21.997045,-12.7 -10e-7,-25.399998 21.997045,-12.700001 21.997044,12.699999 0,25.4 z"
         id="path17258" />
    </clipPath>
    <clipPath
       id="clipPath17260"
       clipPathUnits="userSpaceOnUse">
      <path
         transform="matrix(0.92518243,0,0,0.92716538,-60.732117,-73.45875)"
         style="display:inline;opacity:1;fill:#162d50;fill-opacity:1;stroke-width:0.16493505"
         d="m 89.368447,130.31249 -21.997045,-12.7 -10e-7,-25.399998 21.997045,-12.700001 21.997044,12.699999 0,25.4 z"
         id="path17262" />
    </clipPath>
    <clipPath
       id="clipPath17264"
       clipPathUnits="userSpaceOnUse">
      <path
         transform="matrix(0.92518243,0,0,0.92716538,-60.732117,172.21209)"
         style="display:inline;opacity:1;fill:#162d50;fill-opacity:1;stroke-width:0.16493505"
         d="m 89.368447,130.31249 -21.997045,-12.7 -10e-7,-25.399998 21.997045,-12.700001 21.997044,12.699999 0,25.4 z"
         id="path17266" />
    </clipPath>
    <clipPath
       id="clipPath17268"
       clipPathUnits="userSpaceOnUse">
      <path
         transform="matrix(0.92518243,0,0,0.92716538,-60.732117,-71.87125)"
         style="display:inline;opacity:1;fill:#162d50;fill-opacity:1;stroke-width:0.16493505"
         d="m 89.368447,130.31249 -21.997045,-12.7 -10e-7,-25.399998 21.997045,-12.700001 21.997044,12.699999 0,25.4 z"
         id="path17270" />
    </clipPath>
    <clipPath
       id="clipPath17272"
       clipPathUnits="userSpaceOnUse">
      <path
         transform="matrix(0.92518243,0,0,0.92716538,-60.732117,172.21209)"
         style="display:inline;opacity:1;fill:#162d50;fill-opacity:1;stroke-width:0.16493505"
         d="m 89.368447,130.31249 -21.997045,-12.7 -10e-7,-25.399998 21.997045,-12.700001 21.997044,12.699999 0,25.4 z"
         id="path17274" />
    </clipPath>
    <clipPath
       id="clipPath17276"
       clipPathUnits="userSpaceOnUse">
      <path
         transform="matrix(0.92518243,0,0,0.92716538,-60.732117,173.27043)"
         style="display:inline;opacity:1;fill:#162d50;fill-opacity:1;stroke-width:0.16493505"
         d="m 89.368447,130.31249 -21.997045,-12.7 -10e-7,-25.399998 21.997045,-12.700001 21.997044,12.699999 0,25.4 z"
         id="path17278" />
    </clipPath>
    <clipPath
       id="clipPath17280"
       clipPathUnits="userSpaceOnUse">
      <path
         transform="matrix(0.92518243,0,0,0.92716538,-60.732117,173.27043)"
         style="display:inline;opacity:1;fill:#162d50;fill-opacity:1;stroke-width:0.16493505"
         d="m 89.368447,130.31249 -21.997045,-12.7 -10e-7,-25.399998 21.997045,-12.700001 21.997044,12.699999 0,25.4 z"
         id="path17282" />
    </clipPath>
    <clipPath
       id="clipPath17284"
       clipPathUnits="userSpaceOnUse">
      <path
         transform="matrix(0.90497763,0,0,0.92716538,-58.677359,174.32877)"
         style="display:inline;opacity:1;fill:#162d50;fill-opacity:1;stroke-width:0.16493505"
         d="m 89.368447,130.31249 -21.997045,-12.7 -10e-7,-25.399998 21.997045,-12.700001 21.997044,12.699999 0,25.4 z"
         id="path17286" />
    </clipPath>
    <clipPath
       id="clipPath17288"
       clipPathUnits="userSpaceOnUse">
      <path
         transform="matrix(0.92518243,0,0,0.92716538,-60.732117,174.32877)"
         style="display:inline;opacity:1;fill:#162d50;fill-opacity:1;stroke-width:0.16493505"
         d="m 89.368447,130.31249 -21.997045,-12.7 -10e-7,-25.399998 21.997045,-12.700001 21.997044,12.699999 0,25.4 z"
         id="path17290" />
    </clipPath>
    <clipPath
       id="clipPath17292"
       clipPathUnits="userSpaceOnUse">
      <path
         transform="matrix(0.92518243,0,0,0.92716538,-60.732117,174.32877)"
         style="display:inline;opacity:1;fill:#162d50;fill-opacity:1;stroke-width:0.16493505"
         d="m 89.368447,130.31249 -21.997045,-12.7 -10e-7,-25.399998 21.997045,-12.700001 21.997044,12.699999 0,25.4 z"
         id="path17294" />
    </clipPath>
    <clipPath
       id="clipPath17296"
       clipPathUnits="userSpaceOnUse">
      <path
         transform="matrix(0.92518243,0,0,0.92716538,-60.732117,174.32877)"
         style="display:inline;opacity:1;fill:#162d50;fill-opacity:1;stroke-width:0.16493505"
         d="m 89.368447,130.31249 -21.997045,-12.7 -10e-7,-25.399998 21.997045,-12.700001 21.997044,12.699999 0,25.4 z"
         id="path17298" />
    </clipPath>
    <clipPath
       id="clipPath17300"
       clipPathUnits="userSpaceOnUse">
      <path
         transform="matrix(0.92518243,0,0,0.92716538,-60.732117,174.32877)"
         style="display:inline;opacity:1;fill:#162d50;fill-opacity:1;stroke-width:0.16493505"
         d="m 89.368447,130.31249 -21.997045,-12.7 -10e-7,-25.399998 21.997045,-12.700001 21.997044,12.699999 0,25.4 z"
         id="path17302" />
    </clipPath>
    <clipPath
       id="clipPath17304"
       clipPathUnits="userSpaceOnUse">
      <path
         transform="matrix(0.92518243,0,0,0.92716538,-60.732117,174.32877)"
         style="display:inline;opacity:1;fill:#162d50;fill-opacity:1;stroke-width:0.16493505"
         d="m 89.368447,130.31249 -21.997045,-12.7 -10e-7,-25.399998 21.997045,-12.700001 21.997044,12.699999 0,25.4 z"
         id="path17306" />
    </clipPath>
    <linearGradient
       gradientUnits="userSpaceOnUse"
       y2="25.399982"
       x2="38.305935"
       y1="25.399982"
       x1="5.5940647"
       id="linearGradient12302"
       xlink:href="#linearGradient4462" />
    <clipPath
       id="clipPath22950"
       clipPathUnits="userSpaceOnUse">
      <path
         id="path22952"
         d="m 89.368447,130.31249 -21.997045,-12.7 -10e-7,-25.399998 21.997045,-12.700001 21.997044,12.699999 0,25.4 z"
         style="display:inline;opacity:1;fill:#0b1728;fill-opacity:1;stroke-width:0.16493505"
         transform="matrix(0.92518243,0,0,0.92716538,-60.732117,-71.87125)" />
    </clipPath>
    <clipPath
       id="clipPath22954"
       clipPathUnits="userSpaceOnUse">
      <path
         id="path22956"
         d="m 89.368447,130.31249 -21.997045,-12.7 -10e-7,-25.399998 21.997045,-12.700001 21.997044,12.699999 0,25.4 z"
         style="display:inline;opacity:1;fill:#0b1728;fill-opacity:1;stroke-width:0.16493505"
         transform="matrix(0.92518243,0,0,0.92716538,-60.732117,174.32877)" />
    </clipPath>
    <clipPath
       id="clipPath22958"
       clipPathUnits="userSpaceOnUse">
      <path
         id="path22960"
         d="m 89.368447,130.31249 -21.997045,-12.7 -10e-7,-25.399998 21.997045,-12.700001 21.997044,12.699999 0,25.4 z"
         style="display:inline;opacity:1;fill:#0b1728;fill-opacity:1;stroke-width:0.16493505"
         transform="matrix(0.92518243,0,0,0.92716538,-60.732117,174.32877)" />
    </clipPath>
    <clipPath
       id="clipPath22962"
       clipPathUnits="userSpaceOnUse">
      <path
         id="path22964"
         d="m 89.368447,130.31249 -21.997045,-12.7 -10e-7,-25.399998 21.997045,-12.700001 21.997044,12.699999 0,25.4 z"
         style="display:inline;opacity:1;fill:#0b1728;fill-opacity:1;stroke-width:0.16493505"
         transform="matrix(0.92518243,0,0,0.92716538,-60.732117,174.32877)" />
    </clipPath>
    <clipPath
       id="clipPath22966"
       clipPathUnits="userSpaceOnUse">
      <path
         id="path22968"
         d="m 89.368447,130.31249 -21.997045,-12.7 -10e-7,-25.399998 21.997045,-12.700001 21.997044,12.699999 0,25.4 z"
         style="display:inline;opacity:1;fill:#0b1728;fill-opacity:1;stroke-width:0.16493505"
         transform="matrix(0.92518243,0,0,0.92716538,-60.732117,174.32877)" />
    </clipPath>
    <clipPath
       id="clipPath22970"
       clipPathUnits="userSpaceOnUse">
      <path
         id="path22972"
         d="m 89.368447,130.31249 -21.997045,-12.7 -10e-7,-25.399998 21.997045,-12.700001 21.997044,12.699999 0,25.4 z"
         style="display:inline;opacity:1;fill:#0b1728;fill-opacity:1;stroke-width:0.16493505"
         transform="matrix(0.92518243,0,0,0.92716538,-60.732117,174.32877)" />
    </clipPath>
    <clipPath
       id="clipPath22974"
       clipPathUnits="userSpaceOnUse">
      <path
         id="path22976"
         d="m 89.368447,130.31249 -21.997045,-12.7 -10e-7,-25.399998 21.997045,-12.700001 21.997044,12.699999 0,25.4 z"
         style="display:inline;opacity:1;fill:#0b1728;fill-opacity:1;stroke-width:0.16493505"
         transform="matrix(0.92518243,0,0,0.92716538,-60.732117,174.32877)" />
    </clipPath>
    <clipPath
       id="clipPath22978"
       clipPathUnits="userSpaceOnUse">
      <path
         id="path22980"
         d="m 89.368447,130.31249 -21.997045,-12.7 -10e-7,-25.399998 21.997045,-12.700001 21.997044,12.699999 0,25.4 z"
         style="display:inline;opacity:1;fill:#0b1728;fill-opacity:1;stroke-width:0.16493505"
         transform="matrix(0.92518243,0,0,0.92716538,-60.732117,174.32877)" />
    </clipPath>
    <clipPath
       id="clipPath22982"
       clipPathUnits="userSpaceOnUse">
      <path
         id="path22984"
         d="m 89.368447,130.31249 -21.997045,-12.7 -10e-7,-25.399998 21.997045,-12.700001 21.997044,12.699999 0,25.4 z"
         style="display:inline;opacity:1;fill:#0b1728;fill-opacity:1;stroke-width:0.16493505"
         transform="matrix(0.92518243,0,0,0.92716538,-60.732117,174.32877)" />
    </clipPath>
    <clipPath
       id="clipPath22986"
       clipPathUnits="userSpaceOnUse">
      <path
         id="path22988"
         d="m 89.368447,130.31249 -21.997045,-12.7 -10e-7,-25.399998 21.997045,-12.700001 21.997044,12.699999 0,25.4 z"
         style="display:inline;opacity:1;fill:#0b1728;fill-opacity:1;stroke-width:0.16493505"
         transform="matrix(0.92518243,0,0,0.92716538,-60.732117,174.32877)" />
    </clipPath>
    <clipPath
       id="clipPath22990"
       clipPathUnits="userSpaceOnUse">
      <path
         id="path22992"
         d="m 89.368447,130.31249 -21.997045,-12.7 -10e-7,-25.399998 21.997045,-12.700001 21.997044,12.699999 0,25.4 z"
         style="display:inline;opacity:1;fill:#0b1728;fill-opacity:1;stroke-width:0.16493505"
         transform="matrix(0.92518243,0,0,0.92716538,-60.732117,174.32877)" />
    </clipPath>
    <clipPath
       id="clipPath22994"
       clipPathUnits="userSpaceOnUse">
      <path
         id="path22996"
         d="m 89.368447,130.31249 -21.997045,-12.7 -10e-7,-25.399998 21.997045,-12.700001 21.997044,12.699999 0,25.4 z"
         style="display:inline;opacity:1;fill:#0b1728;fill-opacity:1;stroke-width:0.16493505"
         transform="matrix(0.92518243,0,0,0.92716538,-60.732117,174.32877)" />
    </clipPath>
    <clipPath
       id="clipPath22998"
       clipPathUnits="userSpaceOnUse">
      <path
         id="path23000"
         d="m 89.368447,130.31249 -21.997045,-12.7 -10e-7,-25.399998 21.997045,-12.700001 21.997044,12.699999 0,25.4 z"
         style="display:inline;opacity:1;fill:#0b1728;fill-opacity:1;stroke-width:0.16493505"
         transform="matrix(0.92518243,0,0,0.92716538,-60.732117,174.32877)" />
    </clipPath>
    <clipPath
       id="clipPath23002"
       clipPathUnits="userSpaceOnUse">
      <path
         id="path23004"
         d="m 89.368447,130.31249 -21.997045,-12.7 -10e-7,-25.399998 21.997045,-12.700001 21.997044,12.699999 0,25.4 z"
         style="display:inline;opacity:1;fill:#0b1728;fill-opacity:1;stroke-width:0.16493505"
         transform="matrix(0.92518243,0,0,0.92716538,-60.732117,174.32877)" />
    </clipPath>
    <clipPath
       id="clipPath23006"
       clipPathUnits="userSpaceOnUse">
      <path
         id="path23008"
         d="m 89.368447,130.31249 -21.997045,-12.7 -10e-7,-25.399998 21.997045,-12.700001 21.997044,12.699999 0,25.4 z"
         style="display:inline;opacity:1;fill:#0b1728;fill-opacity:1;stroke-width:0.16493505"
         transform="matrix(0.92518243,0,0,0.92716538,-60.732117,174.32877)" />
    </clipPath>
    <clipPath
       id="clipPath23010"
       clipPathUnits="userSpaceOnUse">
      <path
         id="path23012"
         d="m 89.368447,130.31249 -21.997045,-12.7 -10e-7,-25.399998 21.997045,-12.700001 21.997044,12.699999 0,25.4 z"
         style="display:inline;opacity:1;fill:#0b1728;fill-opacity:1;stroke-width:0.16493505"
         transform="matrix(0.92518243,0,0,0.92716538,-60.732117,174.32877)" />
    </clipPath>
    <clipPath
       id="clipPath9140"
       clipPathUnits="userSpaceOnUse">
      <path
         id="path9142"
         d="m 89.368447,130.31249 -21.997045,-12.7 -10e-7,-25.399998 21.997045,-12.700001 21.997044,12.699999 0,25.4 z"
         style="display:inline;opacity:1;fill:#0b1728;fill-opacity:1;stroke-width:0.16493505"
         transform="matrix(0.92518243,0,0,0.92716538,-60.732117,-71.87125)" />
    </clipPath>
    <clipPath
       id="clipPath9144"
       clipPathUnits="userSpaceOnUse">
      <path
         id="path9146"
         d="m 89.368447,130.31249 -21.997045,-12.7 -10e-7,-25.399998 21.997045,-12.700001 21.997044,12.699999 0,25.4 z"
         style="display:inline;opacity:1;fill:#0b1728;fill-opacity:1;stroke-width:0.16493505"
         transform="matrix(0.92518243,0,0,0.92716538,-60.732117,-71.87125)" />
    </clipPath>
    <clipPath
       id="clipPath9148"
       clipPathUnits="userSpaceOnUse">
      <path
         id="path9150"
         d="m 89.368447,130.31249 -21.997045,-12.7 -10e-7,-25.399998 21.997045,-12.700001 21.997044,12.699999 0,25.4 z"
         style="display:inline;opacity:1;fill:#0b1728;fill-opacity:1;stroke-width:0.16493505"
         transform="matrix(0.92518243,0,0,0.92716538,-60.732117,-71.87125)" />
    </clipPath>
    <clipPath
       id="clipPath9152"
       clipPathUnits="userSpaceOnUse">
      <path
         id="path9154"
         d="m 89.368447,130.31249 -21.997045,-12.7 -10e-7,-25.399998 21.997045,-12.700001 21.997044,12.699999 0,25.4 z"
         style="display:inline;opacity:1;fill:#0b1728;fill-opacity:1;stroke-width:0.16493505"
         transform="matrix(0.92518243,0,0,0.92716538,-60.732117,-71.87125)" />
    </clipPath>
    <clipPath
       id="clipPath9156"
       clipPathUnits="userSpaceOnUse">
      <path
         id="path9158"
         d="m 89.368447,130.31249 -21.997045,-12.7 -10e-7,-25.399998 21.997045,-12.700001 21.997044,12.699999 0,25.4 z"
         style="display:inline;opacity:1;fill:#0b1728;fill-opacity:1;stroke-width:0.16493505"
         transform="matrix(0.92518243,0,0,0.92716538,-60.732117,-71.87125)" />
    </clipPath>
    <clipPath
       id="clipPath9160"
       clipPathUnits="userSpaceOnUse">
      <path
         id="path9162"
         d="m 89.368447,130.31249 -21.997045,-12.7 -10e-7,-25.399998 21.997045,-12.700001 21.997044,12.699999 0,25.4 z"
         style="display:inline;opacity:1;fill:#0b1728;fill-opacity:1;stroke-width:0.16493505"
         transform="matrix(0.92518243,0,0,0.92716538,-60.732117,-71.87125)" />
    </clipPath>
    <clipPath
       id="clipPath9164"
       clipPathUnits="userSpaceOnUse">
      <path
         id="path9166"
         d="m 89.368447,130.31249 -21.997045,-12.7 -10e-7,-25.399998 21.997045,-12.700001 21.997044,12.699999 0,25.4 z"
         style="display:inline;opacity:1;fill:#0b1728;fill-opacity:1;stroke-width:0.16493505"
         transform="matrix(0.92518243,0,0,0.92716538,-60.732117,-71.87125)" />
    </clipPath>
    <clipPath
       id="clipPath9168"
       clipPathUnits="userSpaceOnUse">
      <path
         id="path9170"
         d="m 89.368447,130.31249 -21.997045,-12.7 -10e-7,-25.399998 21.997045,-12.700001 21.997044,12.699999 0,25.4 z"
         style="display:inline;opacity:1;fill:#0b1728;fill-opacity:1;stroke-width:0.16493505"
         transform="matrix(0.92518243,0,0,0.92716538,-60.732117,-71.87125)" />
    </clipPath>
    <clipPath
       id="clipPath11489"
       clipPathUnits="userSpaceOnUse">
      <path
         id="path11491"
         d="m 89.368447,130.31249 -21.997045,-12.7 -10e-7,-25.399998 21.997045,-12.700001 21.997044,12.699999 0,25.4 z"
         style="display:inline;opacity:1;fill:#0b1728;fill-opacity:1;stroke-width:0.16493505"
         transform="matrix(0.92518243,0,0,0.92716538,-60.732117,-71.87125)" />
    </clipPath>
    <clipPath
       id="clipPath11493"
       clipPathUnits="userSpaceOnUse">
      <path
         id="path11495"
         d="m 89.368447,130.31249 -21.997045,-12.7 -10e-7,-25.399998 21.997045,-12.700001 21.997044,12.699999 0,25.4 z"
         style="display:inline;opacity:1;fill:#0b1728;fill-opacity:1;stroke-width:0.16493505"
         transform="matrix(0.92518243,0,0,0.92716538,-60.732117,-71.87125)" />
    </clipPath>
    <clipPath
       id="clipPath11497"
       clipPathUnits="userSpaceOnUse">
      <path
         id="path11499"
         d="m 89.368447,130.31249 -21.997045,-12.7 -10e-7,-25.399998 21.997045,-12.700001 21.997044,12.699999 0,25.4 z"
         style="display:inline;opacity:1;fill:#0b1728;fill-opacity:1;stroke-width:0.16493505"
         transform="matrix(0.92518243,0,0,0.92716538,-60.732117,-71.87125)" />
    </clipPath>
    <clipPath
       id="clipPath11501"
       clipPathUnits="userSpaceOnUse">
      <path
         id="path11503"
         d="m 89.368447,130.31249 -21.997045,-12.7 -10e-7,-25.399998 21.997045,-12.700001 21.997044,12.699999 0,25.4 z"
         style="display:inline;opacity:1;fill:#0b1728;fill-opacity:1;stroke-width:0.16493505"
         transform="matrix(0.92518243,0,0,0.92716538,-60.732117,-71.87125)" />
    </clipPath>
    <clipPath
       id="clipPath11505"
       clipPathUnits="userSpaceOnUse">
      <path
         id="path11507"
         d="m 89.368447,130.31249 -21.997045,-12.7 -10e-7,-25.399998 21.997045,-12.700001 21.997044,12.699999 0,25.4 z"
         style="display:inline;opacity:1;fill:#0b1728;fill-opacity:1;stroke-width:0.16493505"
         transform="matrix(0.92518243,0,0,0.92716538,-60.732117,-71.87125)" />
    </clipPath>
    <clipPath
       id="clipPath11512"
       clipPathUnits="userSpaceOnUse">
      <path
         id="path11514"
         d="m 89.368447,130.31249 -21.997045,-12.7 -10e-7,-25.399998 21.997045,-12.700001 21.997044,12.699999 0,25.4 z"
         style="display:inline;opacity:1;fill:#0b1728;fill-opacity:1;stroke-width:0.16493505"
         transform="matrix(0.92518243,0,0,0.92716538,-60.732117,-71.87125)" />
    </clipPath>
    <clipPath
       id="clipPath11516"
       clipPathUnits="userSpaceOnUse">
      <path
         id="path11518"
         d="m 89.368447,130.31249 -21.997045,-12.7 -10e-7,-25.399998 21.997045,-12.700001 21.997044,12.699999 0,25.4 z"
         style="display:inline;opacity:1;fill:#0b1728;fill-opacity:1;stroke-width:0.16493505"
         transform="matrix(0.92518243,0,0,0.92716538,-60.732117,-72.929583)" />
    </clipPath>
    <clipPath
       id="clipPath11520"
       clipPathUnits="userSpaceOnUse">
      <path
         id="path11522"
         d="m 89.368447,130.31249 -21.997045,-12.7 -10e-7,-25.399998 21.997045,-12.700001 21.997044,12.699999 0,25.4 z"
         style="display:inline;opacity:1;fill:#0b1728;fill-opacity:1;stroke-width:0.16493505"
         transform="matrix(0.92518243,0,0,0.92716538,-60.732117,-72.400417)" />
    </clipPath>
    <filter
       id="filter4788"
       style="color-interpolation-filters:sRGB;">
      <feTurbulence
         id="feTurbulence4772"
         result="turbulence"
         seed="21"
         numOctaves="5"
         baseFrequency="0.0465 0.05"
         type="turbulence" />
      <feComposite
         id="feComposite4774"
         result="composite1"
         operator="out"
         in2="turbulence"
         in="SourceGraphic" />
      <feColorMatrix
         id="feColorMatrix4776"
         result="color"
         values="1 0 0 0 0 0 1 0 0 0 0 0 1 0 0 0 0 0 2 -0.9 " />
      <feFlood
         id="feFlood4778"
         result="flood"
         flood-color="rgb(11,23,40)"
         flood-opacity="1" />
      <feMerge
         id="feMerge4784"
         result="merge">
        <feMergeNode
           id="feMergeNode4780"
           in="flood" />
        <feMergeNode
           id="feMergeNode4782"
           in="color" />
      </feMerge>
      <feComposite
         id="feComposite4786"
         result="composite2"
         operator="in"
         in2="SourceGraphic" />
    </filter>
    <filter
       id="filter12095"
       style="color-interpolation-filters:sRGB;">
      <feTurbulence
         id="feTurbulence12079"
         result="turbulence"
         seed="21"
         numOctaves="5"
         baseFrequency="0.047 0.05"
         type="fractalNoise" />
      <feComposite
         id="feComposite12081"
         result="composite1"
         operator="out"
         in2="turbulence"
         in="SourceGraphic" />
      <feColorMatrix
         id="feColorMatrix12083"
         result="color"
         values="1 0 0 0 0 0 1 0 0 0 0 0 1 0 0 0 0 0 2.2 -0.7 " />
      <feFlood
         id="feFlood12085"
         result="flood"
         flood-color="rgb(80,99,128)"
         flood-opacity="1" />
      <feMerge
         id="feMerge12091"
         result="merge">
        <feMergeNode
           id="feMergeNode12087"
           in="flood" />
        <feMergeNode
           id="feMergeNode12089"
           in="color" />
      </feMerge>
      <feComposite
         id="feComposite12093"
         result="composite2"
         operator="in"
         in2="SourceGraphic" />
    </filter>
    <filter
       id="filter12369"
       style="color-interpolation-filters:sRGB">
      <feBlend
         id="feBlend12371"
         in2="BackgroundImage"
         mode="screen" />
    </filter>
  </defs>
  <metadata
     id="metadata5">
    <rdf:RDF>
      <cc:Work
         rdf:about="">
        <dc:format>image/svg+xml</dc:format>
        <dc:type
           rdf:resource="http://purl.org/dc/dcmitype/StillImage" />
        <dc:title></dc:title>
      </cc:Work>
    </rdf:RDF>
  </metadata>
  <g
     transform="translate(0,-246.20002)"
     style="display:inline;opacity:1;"
     id="layer1">
    <path
       transform="matrix(0.99786129,0,0,1,-67.227313,166.68751)"
       style="fill:#162d50;fill-opacity:1;stroke-width:0.16493505"
       d="m 89.368447,130.31249 -21.997045,-12.7 -10e-7,-25.399998 21.997045,-12.700001 21.997044,12.699999 0,25.4 z"
       id="path3733" />
    <path
       transform="matrix(0.92518243,0,0,0.92716538,-60.732116,174.32877)"
       style="display:inline;opacity:1;fill:#0b1728;fill-opacity:1;stroke-width:0.16493505"
       d="m 89.368447,130.31249 -21.997045,-12.7 -10e-7,-25.399998 21.997045,-12.700001 21.997044,12.699999 0,25.4 z"
       id="path1161" />
  </g>
  <g
     style="display:inline;opacity:1;filter:url(#filter12369)"
     id="layer5">
    <path
       id="path8799"
       d="m 89.368447,130.31249 -21.997045,-12.7 -10e-7,-25.399998 21.997045,-12.700001 21.997044,12.699999 0,25.4 z"
       style="display:inline;opacity:1;fill:#0b1728;fill-opacity:1;stroke-width:0.16493505;filter:url(#filter12095)"
       transform="matrix(0.92518243,0,0,0.92716538,-60.732117,-71.87125)" />
  </g>
  <g
     style="display:inline;opacity:1"
     id="layer3">
    <a
       id="a19097"
       style="display:inline;opacity:1;fill:#d7e3f4"
       transform="translate(0.27131785,4.2579391)">
      <g
         id="text830"
         style="font-style:normal;font-weight:normal;font-size:10.58333302px;line-height:1.25;font-family:sans-serif;letter-spacing:0px;word-spacing:0px;display:inline;opacity:1;fill:#d7e3f4;fill-opacity:1;stroke:none;stroke-width:0.5;stroke-linecap:round;stroke-linejoin:round;stroke-miterlimit:4;stroke-dasharray:none;stroke-dashoffset:0;stroke-opacity:1;paint-order:stroke fill markers"
         clip-path="url(#clipPath17268)"
         transform="translate(-0.27131777,-4.2579401)"
         aria-label="MiSTr">
        <path
           id="path1016"
           style="font-style:normal;font-variant:normal;font-weight:bold;font-stretch:normal;font-size:11.28888893px;font-family:'Bell MT';-inkscape-font-specification:'Bell MT Bold';fill:#d7e3f4;fill-opacity:1;stroke:none;stroke-width:0.5;stroke-linecap:round;stroke-linejoin:round;stroke-miterlimit:4;stroke-dasharray:none;stroke-dashoffset:0;stroke-opacity:1;paint-order:stroke fill markers"
           d="m 8.2343857,21.828107 q 0.143316,0.341753 0.5291666,1.085894 0.3858507,0.738628 0.7606771,1.504818 0.3803386,0.760677 0.8543836,1.604036 0.380339,0.666971 0.429948,0.782726 1.38355,-3.092318 2.094618,-4.977474 1.322917,0 2.441884,-0.06615 0.104731,-0.0055 0.15434,-0.0055 0.225998,0 0.225998,0.176389 0,0.15434 -0.176389,0.15434 -0.628385,0 -0.826822,0.429948 -0.192926,0.424436 -0.192926,2.078081 l -0.0055,2.700955 q 0,0.826823 0.214974,1.157552 0.220486,0.33073 0.711068,0.347266 0.237022,0.0055 0.237022,0.159852 0,0.08268 -0.09922,0.137804 l -1.548915,-0.01102 q -0.711068,0 -1.94579,0.04961 -0.104731,-0.07166 -0.104731,-0.15434 0,-0.126779 0.286632,-0.170877 0.292144,-0.04961 0.418923,-0.143316 0.132292,-0.09371 0.198438,-0.347265 0.06615,-0.253559 0.06615,-0.744141 l 0.02205,-2.463932 q 0,-1.890669 0.0055,-2.177301 -1.499305,3.483681 -1.857595,4.448308 l -0.556728,1.493793 q -0.09371,0.237023 -0.187413,0.237023 -0.09922,0 -0.237022,-0.292144 -0.4023875,-0.848872 -2.8718319,-5.60586 -0.027561,1.367014 -0.027561,3.68763 0,1.223698 0.1378039,1.548915 0.1378038,0.319705 0.7717013,0.374827 0.2094618,0.02205 0.2094618,0.15434 0,0.143316 -0.1708767,0.143316 -0.060634,0 -0.1322917,-0.0055 -0.6614583,-0.0441 -0.9480902,-0.0441 -0.7827257,0 -1.1851129,0.05512 -0.07717,0.01103 -0.1157552,0.01103 -0.1929253,0 -0.1929253,-0.159853 0,-0.07717 0.044097,-0.104731 0.049609,-0.03307 0.253559,-0.07717 0.5291667,-0.09922 0.6890191,-0.380339 0.1653646,-0.281119 0.1653646,-0.920529 l 0.027561,-3.147439 q 0,-1.07487 -0.055122,-1.422136 -0.055122,-0.347265 -0.2700955,-0.534679 -0.2149739,-0.187413 -0.7000434,-0.281119 -0.181901,-0.03859 -0.181901,-0.181901 0,-0.154341 0.1984375,-0.154341 0.044097,0 0.1212674,0.0055 0.5622395,0.0441 2.3206163,0.0441 z" />
        <path
           id="path1018"
           style="font-style:normal;font-variant:normal;font-weight:bold;font-stretch:normal;font-size:11.28888893px;font-family:'Bell MT';-inkscape-font-specification:'Bell MT Bold';fill:#d7e3f4;fill-opacity:1;stroke:none;stroke-width:0.5;stroke-linecap:round;stroke-linejoin:round;stroke-miterlimit:4;stroke-dasharray:none;stroke-dashoffset:0;stroke-opacity:1;paint-order:stroke fill markers"
           d="m 18.227918,22.368298 q 0,0.325217 -0.237022,0.562239 -0.231511,0.231511 -0.556728,0.231511 -0.330729,0 -0.562239,-0.231511 -0.231511,-0.237022 -0.231511,-0.562239 0,-0.330729 0.231511,-0.56224 0.23151,-0.23151 0.562239,-0.23151 0.325217,0 0.556728,0.23151 0.237022,0.231511 0.237022,0.56224 z m 0.07717,1.863107 q 0.02205,0.771702 0.02205,2.750565 l -0.01654,1.185112 q 0,0.35829 0.115755,0.479558 0.121267,0.121267 0.391363,0.159852 0.30868,0.03859 0.30868,0.176389 0,0.148828 -0.242534,0.148828 -0.115756,0 -0.402388,-0.01654 -0.606336,-0.03858 -1.201649,-0.03858 -0.292144,0 -0.595312,0.02756 -0.181901,0.02205 -0.248047,0.02205 -0.242535,0 -0.242535,-0.148828 0,-0.143316 0.319705,-0.170877 0.424436,-0.03858 0.474045,-0.28112 0.04961,-0.248046 0.04961,-0.997699 0,-0.970139 -0.03307,-1.780426 -0.02756,-0.815798 -0.110243,-0.931553 -0.08268,-0.115756 -0.429948,-0.154341 -0.270095,-0.02756 -0.270095,-0.159852 0,-0.132292 0.275608,-0.15434 l 0.115755,-0.01103 z" />
        <path
           id="path1020"
           style="font-style:normal;font-variant:normal;font-weight:bold;font-stretch:normal;font-size:11.28888893px;font-family:'Bell MT';-inkscape-font-specification:'Bell MT Bold';fill:#d7e3f4;fill-opacity:1;stroke:none;stroke-width:0.5;stroke-linecap:round;stroke-linejoin:round;stroke-miterlimit:4;stroke-dasharray:none;stroke-dashoffset:0;stroke-opacity:1;paint-order:stroke fill markers"
           d="m 23.899924,22.054105 q 0.07166,-0.07166 0.143316,-0.220486 0.08268,-0.176389 0.187413,-0.176389 0.148828,0 0.181901,0.242535 l 0.192925,1.51033 0.02205,0.181901 q 0,0.148828 -0.148828,0.148828 -0.110243,0 -0.159853,-0.04961 -0.04961,-0.05512 -0.187413,-0.341753 -0.237022,-0.490582 -0.782726,-0.881945 -0.545703,-0.391362 -1.096918,-0.391362 -0.534679,0 -0.892969,0.30868 -0.352778,0.303169 -0.352778,0.766189 0,0.369315 0.33073,0.666971 0.330729,0.297656 1.273307,0.562239 1.477257,0.418924 2.000911,1.036285 0.518143,0.617361 0.518143,1.372526 0,0.771702 -0.380339,1.295356 -0.380338,0.523655 -0.909505,0.826823 -0.529167,0.297656 -1.35599,0.297656 -0.468533,0 -0.970138,-0.132291 -0.501606,-0.137804 -1.036285,-0.4079 -0.110243,0.12678 -0.187413,0.33073 -0.08819,0.225998 -0.220487,0.225998 -0.137803,0 -0.165364,-0.297656 L 19.74376,26.926848 q -0.01102,-0.132292 -0.01102,-0.165364 0,-0.159853 0.165365,-0.159853 0.121267,0 0.23151,0.275608 0.336241,0.826823 0.915018,1.378038 0.573263,0.551215 1.339453,0.551215 0.650434,0 1.047309,-0.385851 0.402387,-0.38585 0.402387,-0.876432 0,-0.490581 -0.369314,-0.826823 -0.369315,-0.336241 -1.328429,-0.644922 -0.931554,-0.303168 -1.389063,-0.578776 -0.451996,-0.275607 -0.727604,-0.755165 -0.270095,-0.485069 -0.270095,-0.981163 0,-0.865408 0.66697,-1.471745 0.672483,-0.606336 1.824523,-0.606336 0.622873,0 1.659158,0.374826 z" />
        <path
           id="path1022"
           style="font-style:normal;font-variant:normal;font-weight:bold;font-stretch:normal;font-size:11.28888893px;font-family:'Bell MT';-inkscape-font-specification:'Bell MT Bold';fill:#d7e3f4;fill-opacity:1;stroke:none;stroke-width:0.5;stroke-linecap:round;stroke-linejoin:round;stroke-miterlimit:4;stroke-dasharray:none;stroke-dashoffset:0;stroke-opacity:1;paint-order:stroke fill markers"
           d="m 25.91186,21.745424 q 2.860807,0.07717 4.233333,0.07717 1.041797,0 2.293056,-0.06063 0.446484,-0.02205 0.733116,-0.02205 0.110243,0 0.369314,0.0055 0.03859,0.225999 0.09922,0.931554 l 0.08268,0.87092 q 0,0.214974 -0.181901,0.214974 -0.137803,0 -0.264583,-0.264583 -0.209462,-0.446484 -0.540191,-0.766189 -0.325217,-0.319705 -0.760677,-0.424436 -0.429948,-0.104731 -1.427648,-0.104731 -0.08819,0.84336 -0.08819,2.111155 0,1.295356 0.04961,2.502517 0.04961,1.201649 0.121268,1.449696 0.07166,0.248047 0.242534,0.363802 0.170877,0.115756 0.804775,0.159853 0.214974,0.01654 0.214974,0.15434 0,0.15434 -0.187414,0.15434 l -0.15434,-0.0055 -1.141015,-0.02756 q -1.333941,0 -1.620573,0.01103 l -0.694532,0.02756 q -0.08268,0 -0.341753,-0.01102 -0.12678,-0.02756 -0.12678,-0.137804 0,-0.159852 0.209462,-0.159852 0.490582,0 0.738629,-0.20395 0.248047,-0.203949 0.303168,-0.644922 0.06063,-0.446484 0.06063,-1.929253 0,-2.342665 -0.143316,-3.81441 -0.909505,0 -1.317405,0.07717 -0.402387,0.07166 -0.777213,0.4079 -0.374827,0.330729 -0.611849,0.859895 -0.09371,0.209462 -0.214974,0.209462 -0.187413,0 -0.187413,-0.165364 0,-0.04961 0.06614,-0.722092 0.07166,-0.677995 0.159853,-1.12448 z" />
        <path
           id="path1024"
           style="font-style:normal;font-variant:normal;font-weight:bold;font-stretch:normal;font-size:11.28888893px;font-family:'Bell MT';-inkscape-font-specification:'Bell MT Bold';fill:#d7e3f4;fill-opacity:1;stroke:none;stroke-width:0.5;stroke-linecap:round;stroke-linejoin:round;stroke-miterlimit:4;stroke-dasharray:none;stroke-dashoffset:0;stroke-opacity:1;paint-order:stroke fill markers"
           d="m 35.952246,25.34486 q 0.275608,-0.556727 0.633898,-0.832335 0.35829,-0.275607 0.799262,-0.275607 0.418924,0 0.666971,0.242534 0.253559,0.242535 0.253559,0.606337 0,0.286632 -0.181901,0.490582 -0.176389,0.198437 -0.43546,0.198437 -0.192926,0 -0.319705,-0.09922 -0.12678,-0.09922 -0.270096,-0.352777 -0.198437,-0.363802 -0.347265,-0.363802 -0.20395,0 -0.463021,0.413411 -0.259071,0.413411 -0.259071,1.604036 0,1.504818 0.09922,1.675695 0.104731,0.165364 0.451997,0.165364 0.303168,0 0.303168,0.165365 0,0.15434 -0.297656,0.15434 -0.165365,0 -0.479557,-0.03307 -0.286632,-0.02756 -0.540191,-0.02756 -0.545703,0 -1.080382,0.03858 -0.225998,0.01654 -0.264584,0.01654 -0.23151,0 -0.23151,-0.170877 0,-0.148828 0.270096,-0.159852 0.264583,-0.01102 0.369314,-0.121267 0.104731,-0.115756 0.104731,-0.496094 l 0.02205,-1.378038 q 0,-0.418924 -0.03307,-1.041797 -0.03307,-0.622873 -0.06063,-0.738629 -0.02756,-0.121267 -0.143316,-0.214974 -0.110243,-0.09371 -0.303169,-0.110243 -0.198437,-0.02205 -0.253559,-0.04961 -0.04961,-0.03307 -0.04961,-0.12678 0,-0.148828 0.275608,-0.15434 0.507118,-0.0055 1.725303,-0.132291 z" />
      </g>
    </a>
  </g>
</svg>
