<?xml version="1.0" encoding="UTF-8" standalone="no"?>
<svg
   xmlns:osb="http://www.openswatchbook.org/uri/2009/osb"
   xmlns:dc="http://purl.org/dc/elements/1.1/"
   xmlns:cc="http://creativecommons.org/ns#"
   xmlns:rdf="http://www.w3.org/1999/02/22-rdf-syntax-ns#"
   xmlns:svg="http://www.w3.org/2000/svg"
   xmlns="http://www.w3.org/2000/svg"
   xmlns:xlink="http://www.w3.org/1999/xlink"
   id="svg8"
   version="1.1"
   viewBox="0 0 43.899999 50.799998"
   height="5.0799999cm"
   width="4.3899999cm"
   enable-background="new">
  <defs
     id="defs2">
    <linearGradient
       id="linearGradient980">
      <stop
         style="stop-color:#0b1728;stop-opacity:1"
         offset="0"
         id="stop976" />
      <stop
         style="stop-color:#87aade;stop-opacity:1"
         offset="1"
         id="stop978" />
    </linearGradient>
    <linearGradient
       osb:paint="solid"
       id="linearGradient12300">
      <stop
         id="stop12298"
         offset="0"
         style="stop-color:#87aade;stop-opacity:1;" />
    </linearGradient>
    <linearGradient
       osb:paint="solid"
       id="linearGradient19224">
      <stop
         id="stop19222"
         offset="0"
         style="stop-color:#0b1728;stop-opacity:1;" />
    </linearGradient>
    <linearGradient
       id="linearGradient4470">
      <stop
         id="stop4466"
         offset="0"
         style="stop-color:#002255;stop-opacity:1" />
      <stop
         id="stop4468"
         offset="1"
         style="stop-color:#d5e5ff;stop-opacity:1" />
    </linearGradient>
    <linearGradient
       osb:paint="solid"
       id="linearGradient4462">
      <stop
         id="stop4460"
         offset="0"
         style="stop-color:#80b3ff;stop-opacity:1;" />
    </linearGradient>
    <linearGradient
       y2="28.994514"
       x2="21.880211"
       y1="39.792095"
       x1="22.091738"
       gradientTransform="matrix(1.1105435,0,0,1,-0.49830745,-1.1804446)"
       gradientUnits="userSpaceOnUse"
       id="linearGradient4540-7-3"
       xlink:href="#linearGradient4470" />
    <clipPath
       id="clipPath15655"
       clipPathUnits="userSpaceOnUse">
      <g
         id="use15657">
        <path
           transform="matrix(0.99786128,0,0,1,-67.227312,-79.512509)"
           style="display:inline;fill:#0b1728;fill-opacity:1;stroke-width:0.16493505"
           d="m 89.368447,130.31249 -21.997045,-12.7 -10e-7,-25.399998 21.997045,-12.700001 21.997044,12.699999 0,25.4 z"
           id="path15803" />
      </g>
    </clipPath>
    <clipPath
       id="clipPath15666"
       clipPathUnits="userSpaceOnUse">
      <g
         id="use15668">
        <g
           clip-path="url(#clipPath15655)"
           id="g15799">
          <g
             id="g15797">
            <path
               transform="matrix(0.99786128,0,0,1,-67.227312,-79.512509)"
               style="display:inline;fill:#0b1728;fill-opacity:1;stroke-width:0.16493505"
               d="m 89.368447,130.31249 -21.997045,-12.7 -10e-7,-25.399998 21.997045,-12.700001 21.997044,12.699999 0,25.4 z"
               id="path15795" />
          </g>
        </g>
      </g>
    </clipPath>
    <clipPath
       id="clipPath16065"
       clipPathUnits="userSpaceOnUse">
      <path
         transform="matrix(0.92518243,0,0,0.92716538,-60.732117,-71.87125)"
         style="display:inline;opacity:1;fill:#162d50;fill-opacity:1;stroke-width:0.16493505"
         d="m 89.368447,130.31249 -21.997045,-12.7 -10e-7,-25.399998 21.997045,-12.700001 21.997044,12.699999 0,25.4 z"
         id="path16067" />
    </clipPath>
    <clipPath
       id="clipPath16069"
       clipPathUnits="userSpaceOnUse">
      <path
         transform="matrix(0.92518243,0,0,0.92716538,-60.732117,-71.87125)"
         style="display:inline;opacity:1;fill:#162d50;fill-opacity:1;stroke-width:0.16493505"
         d="m 89.368447,130.31249 -21.997045,-12.7 -10e-7,-25.399998 21.997045,-12.700001 21.997044,12.699999 0,25.4 z"
         id="path16071" />
    </clipPath>
    <clipPath
       id="clipPath16073"
       clipPathUnits="userSpaceOnUse">
      <path
         transform="matrix(0.92518243,0,0,0.92716538,-60.732117,-71.87125)"
         style="display:inline;opacity:1;fill:#162d50;fill-opacity:1;stroke-width:0.16493505"
         d="m 89.368447,130.31249 -21.997045,-12.7 -10e-7,-25.399998 21.997045,-12.700001 21.997044,12.699999 0,25.4 z"
         id="path16075" />
    </clipPath>
    <clipPath
       id="clipPath16077"
       clipPathUnits="userSpaceOnUse">
      <path
         transform="matrix(0.92518243,0,0,0.92716538,-60.732117,-71.87125)"
         style="display:inline;opacity:1;fill:#162d50;fill-opacity:1;stroke-width:0.16493505"
         d="m 89.368447,130.31249 -21.997045,-12.7 -10e-7,-25.399998 21.997045,-12.700001 21.997044,12.699999 0,25.4 z"
         id="path16079" />
    </clipPath>
    <clipPath
       id="clipPath16081"
       clipPathUnits="userSpaceOnUse">
      <path
         transform="matrix(0.92518243,0,0,0.92716538,-60.732117,-71.87125)"
         style="display:inline;opacity:1;fill:#162d50;fill-opacity:1;stroke-width:0.16493505"
         d="m 89.368447,130.31249 -21.997045,-12.7 -10e-7,-25.399998 21.997045,-12.700001 21.997044,12.699999 0,25.4 z"
         id="path16083" />
    </clipPath>
    <clipPath
       id="clipPath16085"
       clipPathUnits="userSpaceOnUse">
      <path
         transform="matrix(0.92518243,0,0,0.92716538,-60.732117,174.32877)"
         style="display:inline;opacity:1;fill:#162d50;fill-opacity:1;stroke-width:0.16493505"
         d="m 89.368447,130.31249 -21.997045,-12.7 -10e-7,-25.399998 21.997045,-12.700001 21.997044,12.699999 0,25.4 z"
         id="path16087" />
    </clipPath>
    <clipPath
       id="clipPath16089"
       clipPathUnits="userSpaceOnUse">
      <path
         transform="matrix(0.92518243,0,0,0.92716538,-60.732117,174.32877)"
         style="display:inline;opacity:1;fill:#162d50;fill-opacity:1;stroke-width:0.16493505"
         d="m 89.368447,130.31249 -21.997045,-12.7 -10e-7,-25.399998 21.997045,-12.700001 21.997044,12.699999 0,25.4 z"
         id="path16091" />
    </clipPath>
    <clipPath
       id="clipPath16093"
       clipPathUnits="userSpaceOnUse">
      <path
         transform="matrix(0.92518243,0,0,0.92716538,-60.732117,174.32877)"
         style="display:inline;opacity:1;fill:#162d50;fill-opacity:1;stroke-width:0.16493505"
         d="m 89.368447,130.31249 -21.997045,-12.7 -10e-7,-25.399998 21.997045,-12.700001 21.997044,12.699999 0,25.4 z"
         id="path16095" />
    </clipPath>
    <clipPath
       id="clipPath16097"
       clipPathUnits="userSpaceOnUse">
      <path
         transform="matrix(0.92518243,0,0,0.92716538,-60.732117,174.32877)"
         style="display:inline;opacity:1;fill:#162d50;fill-opacity:1;stroke-width:0.16493505"
         d="m 89.368447,130.31249 -21.997045,-12.7 -10e-7,-25.399998 21.997045,-12.700001 21.997044,12.699999 0,25.4 z"
         id="path16099" />
    </clipPath>
    <clipPath
       id="clipPath16101"
       clipPathUnits="userSpaceOnUse">
      <path
         transform="matrix(0.92518243,0,0,0.92716538,-60.732117,174.32877)"
         style="display:inline;opacity:1;fill:#162d50;fill-opacity:1;stroke-width:0.16493505"
         d="m 89.368447,130.31249 -21.997045,-12.7 -10e-7,-25.399998 21.997045,-12.700001 21.997044,12.699999 0,25.4 z"
         id="path16103" />
    </clipPath>
    <clipPath
       id="clipPath16105"
       clipPathUnits="userSpaceOnUse">
      <path
         transform="matrix(0.92518243,0,0,0.92716538,-60.732117,174.32877)"
         style="display:inline;opacity:1;fill:#162d50;fill-opacity:1;stroke-width:0.16493505"
         d="m 89.368447,130.31249 -21.997045,-12.7 -10e-7,-25.399998 21.997045,-12.700001 21.997044,12.699999 0,25.4 z"
         id="path16107" />
    </clipPath>
    <clipPath
       id="clipPath16109"
       clipPathUnits="userSpaceOnUse">
      <path
         transform="matrix(0.92518243,0,0,0.92716538,-60.732117,174.32877)"
         style="display:inline;opacity:1;fill:#162d50;fill-opacity:1;stroke-width:0.16493505"
         d="m 89.368447,130.31249 -21.997045,-12.7 -10e-7,-25.399998 21.997045,-12.700001 21.997044,12.699999 0,25.4 z"
         id="path16111" />
    </clipPath>
    <clipPath
       id="clipPath16113"
       clipPathUnits="userSpaceOnUse">
      <path
         transform="matrix(0.92518243,0,0,0.92716538,-60.732117,174.32877)"
         style="display:inline;opacity:1;fill:#162d50;fill-opacity:1;stroke-width:0.16493505"
         d="m 89.368447,130.31249 -21.997045,-12.7 -10e-7,-25.399998 21.997045,-12.700001 21.997044,12.699999 0,25.4 z"
         id="path16115" />
    </clipPath>
    <clipPath
       id="clipPath16117"
       clipPathUnits="userSpaceOnUse">
      <path
         transform="matrix(0.92518243,0,0,0.92716538,-60.732117,174.32877)"
         style="display:inline;opacity:1;fill:#162d50;fill-opacity:1;stroke-width:0.16493505"
         d="m 89.368447,130.31249 -21.997045,-12.7 -10e-7,-25.399998 21.997045,-12.700001 21.997044,12.699999 0,25.4 z"
         id="path16119" />
    </clipPath>
    <clipPath
       id="clipPath16121"
       clipPathUnits="userSpaceOnUse">
      <path
         transform="matrix(0.92518243,0,0,0.92716538,-60.732117,174.32877)"
         style="display:inline;opacity:1;fill:#162d50;fill-opacity:1;stroke-width:0.16493505"
         d="m 89.368447,130.31249 -21.997045,-12.7 -10e-7,-25.399998 21.997045,-12.700001 21.997044,12.699999 0,25.4 z"
         id="path16123" />
    </clipPath>
    <filter
       id="filter16509"
       style="color-interpolation-filters:sRGB">
      <feBlend
         id="feBlend16511"
         in2="BackgroundImage"
         mode="color-burn" />
    </filter>
    <clipPath
       id="clipPath16785"
       clipPathUnits="userSpaceOnUse">
      <path
         id="path16787"
         d="m 89.368447,130.31249 -21.997045,-12.7 -10e-7,-25.399998 21.997045,-12.700001 21.997044,12.699999 0,25.4 z"
         style="display:inline;opacity:1;fill:#162d50;fill-opacity:1;stroke-width:0.16493505;filter:url(#filter16509)"
         transform="matrix(0.92518243,0,0,0.92716538,-60.732117,-73.987917)" />
    </clipPath>
    <clipPath
       id="clipPath16789"
       clipPathUnits="userSpaceOnUse">
      <path
         id="path16791"
         d="m 89.368447,130.31249 -21.997045,-12.7 -10e-7,-25.399998 21.997045,-12.700001 21.997044,12.699999 0,25.4 z"
         style="display:inline;opacity:1;fill:#162d50;fill-opacity:1;stroke-width:0.16493505;filter:url(#filter16509)"
         transform="matrix(0.92518243,0,0,0.92716538,-60.732117,-73.987917)" />
    </clipPath>
    <clipPath
       id="clipPath16793"
       clipPathUnits="userSpaceOnUse">
      <path
         id="path16795"
         d="m 89.368447,130.31249 -21.997045,-12.7 -10e-7,-25.399998 21.997045,-12.700001 21.997044,12.699999 0,25.4 z"
         style="display:inline;opacity:1;fill:#162d50;fill-opacity:1;stroke-width:0.16493505;filter:url(#filter16509)"
         transform="matrix(0.92518243,0,0,0.92716538,-60.732117,-73.45875)" />
    </clipPath>
    <clipPath
       id="clipPath16797"
       clipPathUnits="userSpaceOnUse">
      <path
         id="path16799"
         d="m 89.368447,130.31249 -21.997045,-12.7 -10e-7,-25.399998 21.997045,-12.700001 21.997044,12.699999 0,25.4 z"
         style="display:inline;opacity:1;fill:#162d50;fill-opacity:1;stroke-width:0.16493505;filter:url(#filter16509)"
         transform="matrix(0.92518243,0,0,0.92716538,-60.732117,-73.45875)" />
    </clipPath>
    <clipPath
       id="clipPath16801"
       clipPathUnits="userSpaceOnUse">
      <path
         id="path16803"
         d="m 89.368447,130.31249 -21.997045,-12.7 -10e-7,-25.399998 21.997045,-12.700001 21.997044,12.699999 0,25.4 z"
         style="display:inline;opacity:1;fill:#162d50;fill-opacity:1;stroke-width:0.16493505;filter:url(#filter16509)"
         transform="matrix(0.92518243,0,0,0.92716538,-60.732117,172.21209)" />
    </clipPath>
    <clipPath
       id="clipPath16805"
       clipPathUnits="userSpaceOnUse">
      <path
         id="path16807"
         d="m 89.368447,130.31249 -21.997045,-12.7 -10e-7,-25.399998 21.997045,-12.700001 21.997044,12.699999 0,25.4 z"
         style="display:inline;opacity:1;fill:#162d50;fill-opacity:1;stroke-width:0.16493505;filter:url(#filter16509)"
         transform="matrix(0.92518243,0,0,0.92716538,-60.732117,-71.87125)" />
    </clipPath>
    <clipPath
       id="clipPath16809"
       clipPathUnits="userSpaceOnUse">
      <path
         id="path16811"
         d="m 89.368447,130.31249 -21.997045,-12.7 -10e-7,-25.399998 21.997045,-12.700001 21.997044,12.699999 0,25.4 z"
         style="display:inline;opacity:1;fill:#162d50;fill-opacity:1;stroke-width:0.16493505;filter:url(#filter16509)"
         transform="matrix(0.92518243,0,0,0.92716538,-60.732117,172.21209)" />
    </clipPath>
    <clipPath
       id="clipPath16813"
       clipPathUnits="userSpaceOnUse">
      <path
         id="path16815"
         d="m 89.368447,130.31249 -21.997045,-12.7 -10e-7,-25.399998 21.997045,-12.700001 21.997044,12.699999 0,25.4 z"
         style="display:inline;opacity:1;fill:#162d50;fill-opacity:1;stroke-width:0.16493505;filter:url(#filter16509)"
         transform="matrix(0.92518243,0,0,0.92716538,-60.732117,173.27043)" />
    </clipPath>
    <clipPath
       id="clipPath16817"
       clipPathUnits="userSpaceOnUse">
      <path
         id="path16819"
         d="m 89.368447,130.31249 -21.997045,-12.7 -10e-7,-25.399998 21.997045,-12.700001 21.997044,12.699999 0,25.4 z"
         style="display:inline;opacity:1;fill:#162d50;fill-opacity:1;stroke-width:0.16493505;filter:url(#filter16509)"
         transform="matrix(0.92518243,0,0,0.92716538,-60.732117,173.27043)" />
    </clipPath>
    <clipPath
       id="clipPath16821"
       clipPathUnits="userSpaceOnUse">
      <path
         id="path16823"
         d="m 89.368447,130.31249 -21.997045,-12.7 -10e-7,-25.399998 21.997045,-12.700001 21.997044,12.699999 0,25.4 z"
         style="display:inline;opacity:1;fill:#162d50;fill-opacity:1;stroke-width:0.16493505;filter:url(#filter16509)"
         transform="matrix(0.92518243,0,0,0.92716538,-60.732117,174.32877)" />
    </clipPath>
    <clipPath
       id="clipPath16825"
       clipPathUnits="userSpaceOnUse">
      <path
         id="path16827"
         d="m 89.368447,130.31249 -21.997045,-12.7 -10e-7,-25.399998 21.997045,-12.700001 21.997044,12.699999 0,25.4 z"
         style="display:inline;opacity:1;fill:#162d50;fill-opacity:1;stroke-width:0.16493505;filter:url(#filter16509)"
         transform="matrix(0.92518243,0,0,0.92716538,-60.732117,174.32877)" />
    </clipPath>
    <clipPath
       id="clipPath16829"
       clipPathUnits="userSpaceOnUse">
      <path
         id="path16831"
         d="m 89.368447,130.31249 -21.997045,-12.7 -10e-7,-25.399998 21.997045,-12.700001 21.997044,12.699999 0,25.4 z"
         style="display:inline;opacity:1;fill:#162d50;fill-opacity:1;stroke-width:0.16493505;filter:url(#filter16509)"
         transform="matrix(0.92518243,0,0,0.92716538,-60.732117,174.32877)" />
    </clipPath>
    <clipPath
       id="clipPath16833"
       clipPathUnits="userSpaceOnUse">
      <path
         id="path16835"
         d="m 89.368447,130.31249 -21.997045,-12.7 -10e-7,-25.399998 21.997045,-12.700001 21.997044,12.699999 0,25.4 z"
         style="display:inline;opacity:1;fill:#162d50;fill-opacity:1;stroke-width:0.16493505;filter:url(#filter16509)"
         transform="matrix(0.92518243,0,0,0.92716538,-60.732117,174.32877)" />
    </clipPath>
    <clipPath
       id="clipPath16837"
       clipPathUnits="userSpaceOnUse">
      <path
         id="path16839"
         d="m 89.368447,130.31249 -21.997045,-12.7 -10e-7,-25.399998 21.997045,-12.700001 21.997044,12.699999 0,25.4 z"
         style="display:inline;opacity:1;fill:#162d50;fill-opacity:1;stroke-width:0.16493505;filter:url(#filter16509)"
         transform="matrix(0.92518243,0,0,0.92716538,-60.732117,174.32877)" />
    </clipPath>
    <clipPath
       id="clipPath16841"
       clipPathUnits="userSpaceOnUse">
      <path
         id="path16843"
         d="m 89.368447,130.31249 -21.997045,-12.7 -10e-7,-25.399998 21.997045,-12.700001 21.997044,12.699999 0,25.4 z"
         style="display:inline;opacity:1;fill:#162d50;fill-opacity:1;stroke-width:0.16493505;filter:url(#filter16509)"
         transform="matrix(0.92518243,0,0,0.92716538,-60.732117,174.32877)" />
    </clipPath>
    <clipPath
       id="clipPath17248"
       clipPathUnits="userSpaceOnUse">
      <path
         transform="matrix(0.92518243,0,0,0.92716538,-60.732117,-73.987917)"
         style="display:inline;opacity:1;fill:#162d50;fill-opacity:1;stroke-width:0.16493505"
         d="m 89.368447,130.31249 -21.997045,-12.7 -10e-7,-25.399998 21.997045,-12.700001 21.997044,12.699999 0,25.4 z"
         id="path17250" />
    </clipPath>
    <clipPath
       id="clipPath17252"
       clipPathUnits="userSpaceOnUse">
      <path
         transform="matrix(0.92518243,0,0,0.92716538,-60.732117,-73.987917)"
         style="display:inline;opacity:1;fill:#162d50;fill-opacity:1;stroke-width:0.16493505"
         d="m 89.368447,130.31249 -21.997045,-12.7 -10e-7,-25.399998 21.997045,-12.700001 21.997044,12.699999 0,25.4 z"
         id="path17254" />
    </clipPath>
    <clipPath
       id="clipPath17256"
       clipPathUnits="userSpaceOnUse">
      <path
         transform="matrix(0.92518243,0,0,0.92716538,-60.732117,-73.45875)"
         style="display:inline;opacity:1;fill:#162d50;fill-opacity:1;stroke-width:0.16493505"
         d="m 89.368447,130.31249 -21.997045,-12.7 -10e-7,-25.399998 21.997045,-12.700001 21.997044,12.699999 0,25.4 z"
         id="path17258" />
    </clipPath>
    <clipPath
       id="clipPath17260"
       clipPathUnits="userSpaceOnUse">
      <path
         transform="matrix(0.92518243,0,0,0.92716538,-60.732117,-73.45875)"
         style="display:inline;opacity:1;fill:#162d50;fill-opacity:1;stroke-width:0.16493505"
         d="m 89.368447,130.31249 -21.997045,-12.7 -10e-7,-25.399998 21.997045,-12.700001 21.997044,12.699999 0,25.4 z"
         id="path17262" />
    </clipPath>
    <clipPath
       id="clipPath17264"
       clipPathUnits="userSpaceOnUse">
      <path
         transform="matrix(0.92518243,0,0,0.92716538,-60.732117,172.21209)"
         style="display:inline;opacity:1;fill:#162d50;fill-opacity:1;stroke-width:0.16493505"
         d="m 89.368447,130.31249 -21.997045,-12.7 -10e-7,-25.399998 21.997045,-12.700001 21.997044,12.699999 0,25.4 z"
         id="path17266" />
    </clipPath>
    <clipPath
       id="clipPath17268"
       clipPathUnits="userSpaceOnUse">
      <path
         transform="matrix(0.92518243,0,0,0.92716538,-60.732117,-71.87125)"
         style="display:inline;opacity:1;fill:#162d50;fill-opacity:1;stroke-width:0.16493505"
         d="m 89.368447,130.31249 -21.997045,-12.7 -10e-7,-25.399998 21.997045,-12.700001 21.997044,12.699999 0,25.4 z"
         id="path17270" />
    </clipPath>
    <clipPath
       id="clipPath17272"
       clipPathUnits="userSpaceOnUse">
      <path
         transform="matrix(0.92518243,0,0,0.92716538,-60.732117,172.21209)"
         style="display:inline;opacity:1;fill:#162d50;fill-opacity:1;stroke-width:0.16493505"
         d="m 89.368447,130.31249 -21.997045,-12.7 -10e-7,-25.399998 21.997045,-12.700001 21.997044,12.699999 0,25.4 z"
         id="path17274" />
    </clipPath>
    <clipPath
       id="clipPath17276"
       clipPathUnits="userSpaceOnUse">
      <path
         transform="matrix(0.92518243,0,0,0.92716538,-60.732117,173.27043)"
         style="display:inline;opacity:1;fill:#162d50;fill-opacity:1;stroke-width:0.16493505"
         d="m 89.368447,130.31249 -21.997045,-12.7 -10e-7,-25.399998 21.997045,-12.700001 21.997044,12.699999 0,25.4 z"
         id="path17278" />
    </clipPath>
    <clipPath
       id="clipPath17280"
       clipPathUnits="userSpaceOnUse">
      <path
         transform="matrix(0.92518243,0,0,0.92716538,-60.732117,173.27043)"
         style="display:inline;opacity:1;fill:#162d50;fill-opacity:1;stroke-width:0.16493505"
         d="m 89.368447,130.31249 -21.997045,-12.7 -10e-7,-25.399998 21.997045,-12.700001 21.997044,12.699999 0,25.4 z"
         id="path17282" />
    </clipPath>
    <clipPath
       id="clipPath17284"
       clipPathUnits="userSpaceOnUse">
      <path
         transform="matrix(0.90497763,0,0,0.92716538,-58.677359,174.32877)"
         style="display:inline;opacity:1;fill:#162d50;fill-opacity:1;stroke-width:0.16493505"
         d="m 89.368447,130.31249 -21.997045,-12.7 -10e-7,-25.399998 21.997045,-12.700001 21.997044,12.699999 0,25.4 z"
         id="path17286" />
    </clipPath>
    <clipPath
       id="clipPath17288"
       clipPathUnits="userSpaceOnUse">
      <path
         transform="matrix(0.92518243,0,0,0.92716538,-60.732117,174.32877)"
         style="display:inline;opacity:1;fill:#162d50;fill-opacity:1;stroke-width:0.16493505"
         d="m 89.368447,130.31249 -21.997045,-12.7 -10e-7,-25.399998 21.997045,-12.700001 21.997044,12.699999 0,25.4 z"
         id="path17290" />
    </clipPath>
    <clipPath
       id="clipPath17292"
       clipPathUnits="userSpaceOnUse">
      <path
         transform="matrix(0.92518243,0,0,0.92716538,-60.732117,174.32877)"
         style="display:inline;opacity:1;fill:#162d50;fill-opacity:1;stroke-width:0.16493505"
         d="m 89.368447,130.31249 -21.997045,-12.7 -10e-7,-25.399998 21.997045,-12.700001 21.997044,12.699999 0,25.4 z"
         id="path17294" />
    </clipPath>
    <clipPath
       id="clipPath17296"
       clipPathUnits="userSpaceOnUse">
      <path
         transform="matrix(0.92518243,0,0,0.92716538,-60.732117,174.32877)"
         style="display:inline;opacity:1;fill:#162d50;fill-opacity:1;stroke-width:0.16493505"
         d="m 89.368447,130.31249 -21.997045,-12.7 -10e-7,-25.399998 21.997045,-12.700001 21.997044,12.699999 0,25.4 z"
         id="path17298" />
    </clipPath>
    <clipPath
       id="clipPath17300"
       clipPathUnits="userSpaceOnUse">
      <path
         transform="matrix(0.92518243,0,0,0.92716538,-60.732117,174.32877)"
         style="display:inline;opacity:1;fill:#162d50;fill-opacity:1;stroke-width:0.16493505"
         d="m 89.368447,130.31249 -21.997045,-12.7 -10e-7,-25.399998 21.997045,-12.700001 21.997044,12.699999 0,25.4 z"
         id="path17302" />
    </clipPath>
    <clipPath
       id="clipPath17304"
       clipPathUnits="userSpaceOnUse">
      <path
         transform="matrix(0.92518243,0,0,0.92716538,-60.732117,174.32877)"
         style="display:inline;opacity:1;fill:#162d50;fill-opacity:1;stroke-width:0.16493505"
         d="m 89.368447,130.31249 -21.997045,-12.7 -10e-7,-25.399998 21.997045,-12.700001 21.997044,12.699999 0,25.4 z"
         id="path17306" />
    </clipPath>
    <linearGradient
       gradientUnits="userSpaceOnUse"
       y2="25.399982"
       x2="38.305935"
       y1="25.399982"
       x1="5.5940647"
       id="linearGradient12302"
       xlink:href="#linearGradient4462" />
    <clipPath
       id="clipPath22950"
       clipPathUnits="userSpaceOnUse">
      <path
         id="path22952"
         d="m 89.368447,130.31249 -21.997045,-12.7 -10e-7,-25.399998 21.997045,-12.700001 21.997044,12.699999 0,25.4 z"
         style="display:inline;opacity:1;fill:#0b1728;fill-opacity:1;stroke-width:0.16493505"
         transform="matrix(0.92518243,0,0,0.92716538,-60.732117,-71.87125)" />
    </clipPath>
    <clipPath
       id="clipPath22954"
       clipPathUnits="userSpaceOnUse">
      <path
         id="path22956"
         d="m 89.368447,130.31249 -21.997045,-12.7 -10e-7,-25.399998 21.997045,-12.700001 21.997044,12.699999 0,25.4 z"
         style="display:inline;opacity:1;fill:#0b1728;fill-opacity:1;stroke-width:0.16493505"
         transform="matrix(0.92518243,0,0,0.92716538,-60.732117,174.32877)" />
    </clipPath>
    <clipPath
       id="clipPath22958"
       clipPathUnits="userSpaceOnUse">
      <path
         id="path22960"
         d="m 89.368447,130.31249 -21.997045,-12.7 -10e-7,-25.399998 21.997045,-12.700001 21.997044,12.699999 0,25.4 z"
         style="display:inline;opacity:1;fill:#0b1728;fill-opacity:1;stroke-width:0.16493505"
         transform="matrix(0.92518243,0,0,0.92716538,-60.732117,174.32877)" />
    </clipPath>
    <clipPath
       id="clipPath22962"
       clipPathUnits="userSpaceOnUse">
      <path
         id="path22964"
         d="m 89.368447,130.31249 -21.997045,-12.7 -10e-7,-25.399998 21.997045,-12.700001 21.997044,12.699999 0,25.4 z"
         style="display:inline;opacity:1;fill:#0b1728;fill-opacity:1;stroke-width:0.16493505"
         transform="matrix(0.92518243,0,0,0.92716538,-60.732117,174.32877)" />
    </clipPath>
    <clipPath
       id="clipPath22966"
       clipPathUnits="userSpaceOnUse">
      <path
         id="path22968"
         d="m 89.368447,130.31249 -21.997045,-12.7 -10e-7,-25.399998 21.997045,-12.700001 21.997044,12.699999 0,25.4 z"
         style="display:inline;opacity:1;fill:#0b1728;fill-opacity:1;stroke-width:0.16493505"
         transform="matrix(0.92518243,0,0,0.92716538,-60.732117,174.32877)" />
    </clipPath>
    <clipPath
       id="clipPath22970"
       clipPathUnits="userSpaceOnUse">
      <path
         id="path22972"
         d="m 89.368447,130.31249 -21.997045,-12.7 -10e-7,-25.399998 21.997045,-12.700001 21.997044,12.699999 0,25.4 z"
         style="display:inline;opacity:1;fill:#0b1728;fill-opacity:1;stroke-width:0.16493505"
         transform="matrix(0.92518243,0,0,0.92716538,-60.732117,174.32877)" />
    </clipPath>
    <clipPath
       id="clipPath22974"
       clipPathUnits="userSpaceOnUse">
      <path
         id="path22976"
         d="m 89.368447,130.31249 -21.997045,-12.7 -10e-7,-25.399998 21.997045,-12.700001 21.997044,12.699999 0,25.4 z"
         style="display:inline;opacity:1;fill:#0b1728;fill-opacity:1;stroke-width:0.16493505"
         transform="matrix(0.92518243,0,0,0.92716538,-60.732117,174.32877)" />
    </clipPath>
    <clipPath
       id="clipPath22978"
       clipPathUnits="userSpaceOnUse">
      <path
         id="path22980"
         d="m 89.368447,130.31249 -21.997045,-12.7 -10e-7,-25.399998 21.997045,-12.700001 21.997044,12.699999 0,25.4 z"
         style="display:inline;opacity:1;fill:#0b1728;fill-opacity:1;stroke-width:0.16493505"
         transform="matrix(0.92518243,0,0,0.92716538,-60.732117,174.32877)" />
    </clipPath>
    <clipPath
       id="clipPath22982"
       clipPathUnits="userSpaceOnUse">
      <path
         id="path22984"
         d="m 89.368447,130.31249 -21.997045,-12.7 -10e-7,-25.399998 21.997045,-12.700001 21.997044,12.699999 0,25.4 z"
         style="display:inline;opacity:1;fill:#0b1728;fill-opacity:1;stroke-width:0.16493505"
         transform="matrix(0.92518243,0,0,0.92716538,-60.732117,174.32877)" />
    </clipPath>
    <clipPath
       id="clipPath22986"
       clipPathUnits="userSpaceOnUse">
      <path
         id="path22988"
         d="m 89.368447,130.31249 -21.997045,-12.7 -10e-7,-25.399998 21.997045,-12.700001 21.997044,12.699999 0,25.4 z"
         style="display:inline;opacity:1;fill:#0b1728;fill-opacity:1;stroke-width:0.16493505"
         transform="matrix(0.92518243,0,0,0.92716538,-60.732117,174.32877)" />
    </clipPath>
    <clipPath
       id="clipPath22990"
       clipPathUnits="userSpaceOnUse">
      <path
         id="path22992"
         d="m 89.368447,130.31249 -21.997045,-12.7 -10e-7,-25.399998 21.997045,-12.700001 21.997044,12.699999 0,25.4 z"
         style="display:inline;opacity:1;fill:#0b1728;fill-opacity:1;stroke-width:0.16493505"
         transform="matrix(0.92518243,0,0,0.92716538,-60.732117,174.32877)" />
    </clipPath>
    <clipPath
       id="clipPath22994"
       clipPathUnits="userSpaceOnUse">
      <path
         id="path22996"
         d="m 89.368447,130.31249 -21.997045,-12.7 -10e-7,-25.399998 21.997045,-12.700001 21.997044,12.699999 0,25.4 z"
         style="display:inline;opacity:1;fill:#0b1728;fill-opacity:1;stroke-width:0.16493505"
         transform="matrix(0.92518243,0,0,0.92716538,-60.732117,174.32877)" />
    </clipPath>
    <clipPath
       id="clipPath22998"
       clipPathUnits="userSpaceOnUse">
      <path
         id="path23000"
         d="m 89.368447,130.31249 -21.997045,-12.7 -10e-7,-25.399998 21.997045,-12.700001 21.997044,12.699999 0,25.4 z"
         style="display:inline;opacity:1;fill:#0b1728;fill-opacity:1;stroke-width:0.16493505"
         transform="matrix(0.92518243,0,0,0.92716538,-60.732117,174.32877)" />
    </clipPath>
    <clipPath
       id="clipPath23002"
       clipPathUnits="userSpaceOnUse">
      <path
         id="path23004"
         d="m 89.368447,130.31249 -21.997045,-12.7 -10e-7,-25.399998 21.997045,-12.700001 21.997044,12.699999 0,25.4 z"
         style="display:inline;opacity:1;fill:#0b1728;fill-opacity:1;stroke-width:0.16493505"
         transform="matrix(0.92518243,0,0,0.92716538,-60.732117,174.32877)" />
    </clipPath>
    <clipPath
       id="clipPath23006"
       clipPathUnits="userSpaceOnUse">
      <path
         id="path23008"
         d="m 89.368447,130.31249 -21.997045,-12.7 -10e-7,-25.399998 21.997045,-12.700001 21.997044,12.699999 0,25.4 z"
         style="display:inline;opacity:1;fill:#0b1728;fill-opacity:1;stroke-width:0.16493505"
         transform="matrix(0.92518243,0,0,0.92716538,-60.732117,174.32877)" />
    </clipPath>
    <clipPath
       id="clipPath23010"
       clipPathUnits="userSpaceOnUse">
      <path
         id="path23012"
         d="m 89.368447,130.31249 -21.997045,-12.7 -10e-7,-25.399998 21.997045,-12.700001 21.997044,12.699999 0,25.4 z"
         style="display:inline;opacity:1;fill:#0b1728;fill-opacity:1;stroke-width:0.16493505"
         transform="matrix(0.92518243,0,0,0.92716538,-60.732117,174.32877)" />
    </clipPath>
    <linearGradient
       gradientTransform="translate(0.44794026,-25.955744)"
       gradientUnits="userSpaceOnUse"
       y2="36.975521"
       x2="22.754168"
       y1="46.831249"
       x1="22.754168"
       id="linearGradient974"
       xlink:href="#linearGradient980" />
    <linearGradient
       gradientTransform="translate(0.78680312,-12.296376)"
       gradientUnits="userSpaceOnUse"
       y2="19.446875"
       x2="22.158854"
       y1="36.578644"
       x1="22.092709"
       id="linearGradient988"
       xlink:href="#linearGradient980" />
    <linearGradient
       gradientTransform="translate(0.32291978,-5.6983988)"
       gradientUnits="userSpaceOnUse"
       y2="19.446875"
       x2="22.158854"
       y1="36.578644"
       x1="22.092709"
       id="linearGradient988-8"
       xlink:href="#linearGradient980" />
    <linearGradient
       gradientTransform="translate(-0.00281975,-17.729239)"
       gradientUnits="userSpaceOnUse"
       y2="36.975521"
       x2="22.754168"
       y1="46.831249"
       x1="22.754168"
       id="linearGradient974-4"
       xlink:href="#linearGradient980" />
    <linearGradient
       gradientTransform="translate(0.47956993,-12.628377)"
       gradientUnits="userSpaceOnUse"
       y2="36.975521"
       x2="22.754168"
       y1="46.831249"
       x1="22.754168"
       id="linearGradient974-4-7"
       xlink:href="#linearGradient980" />
    <linearGradient
       gradientTransform="translate(0.99468863,9.2353096)"
       gradientUnits="userSpaceOnUse"
       y2="19.446875"
       x2="22.158854"
       y1="36.578644"
       x1="22.092709"
       id="linearGradient988-8-3-9"
       xlink:href="#linearGradient980" />
    <linearGradient
       gradientTransform="translate(0.57036835,-15.355487)"
       gradientUnits="userSpaceOnUse"
       y2="19.446875"
       x2="22.158854"
       y1="36.578644"
       x1="22.092709"
       id="linearGradient988-6"
       xlink:href="#linearGradient980" />
    <clipPath
       id="clipPath9140"
       clipPathUnits="userSpaceOnUse">
      <path
         id="path9142"
         d="m 89.368447,130.31249 -21.997045,-12.7 -10e-7,-25.399998 21.997045,-12.700001 21.997044,12.699999 0,25.4 z"
         style="display:inline;opacity:1;fill:#0b1728;fill-opacity:1;stroke-width:0.16493505"
         transform="matrix(0.92518243,0,0,0.92716538,-60.732117,-71.87125)" />
    </clipPath>
    <clipPath
       id="clipPath9144"
       clipPathUnits="userSpaceOnUse">
      <path
         id="path9146"
         d="m 89.368447,130.31249 -21.997045,-12.7 -10e-7,-25.399998 21.997045,-12.700001 21.997044,12.699999 0,25.4 z"
         style="display:inline;opacity:1;fill:#0b1728;fill-opacity:1;stroke-width:0.16493505"
         transform="matrix(0.92518243,0,0,0.92716538,-60.732117,-71.87125)" />
    </clipPath>
    <clipPath
       id="clipPath9148"
       clipPathUnits="userSpaceOnUse">
      <path
         id="path9150"
         d="m 89.368447,130.31249 -21.997045,-12.7 -10e-7,-25.399998 21.997045,-12.700001 21.997044,12.699999 0,25.4 z"
         style="display:inline;opacity:1;fill:#0b1728;fill-opacity:1;stroke-width:0.16493505"
         transform="matrix(0.92518243,0,0,0.92716538,-60.732117,-71.87125)" />
    </clipPath>
    <clipPath
       id="clipPath9152"
       clipPathUnits="userSpaceOnUse">
      <path
         id="path9154"
         d="m 89.368447,130.31249 -21.997045,-12.7 -10e-7,-25.399998 21.997045,-12.700001 21.997044,12.699999 0,25.4 z"
         style="display:inline;opacity:1;fill:#0b1728;fill-opacity:1;stroke-width:0.16493505"
         transform="matrix(0.92518243,0,0,0.92716538,-60.732117,-71.87125)" />
    </clipPath>
    <clipPath
       id="clipPath9156"
       clipPathUnits="userSpaceOnUse">
      <path
         id="path9158"
         d="m 89.368447,130.31249 -21.997045,-12.7 -10e-7,-25.399998 21.997045,-12.700001 21.997044,12.699999 0,25.4 z"
         style="display:inline;opacity:1;fill:#0b1728;fill-opacity:1;stroke-width:0.16493505"
         transform="matrix(0.92518243,0,0,0.92716538,-60.732117,-71.87125)" />
    </clipPath>
    <clipPath
       id="clipPath9160"
       clipPathUnits="userSpaceOnUse">
      <path
         id="path9162"
         d="m 89.368447,130.31249 -21.997045,-12.7 -10e-7,-25.399998 21.997045,-12.700001 21.997044,12.699999 0,25.4 z"
         style="display:inline;opacity:1;fill:#0b1728;fill-opacity:1;stroke-width:0.16493505"
         transform="matrix(0.92518243,0,0,0.92716538,-60.732117,-71.87125)" />
    </clipPath>
    <clipPath
       id="clipPath9164"
       clipPathUnits="userSpaceOnUse">
      <path
         id="path9166"
         d="m 89.368447,130.31249 -21.997045,-12.7 -10e-7,-25.399998 21.997045,-12.700001 21.997044,12.699999 0,25.4 z"
         style="display:inline;opacity:1;fill:#0b1728;fill-opacity:1;stroke-width:0.16493505"
         transform="matrix(0.92518243,0,0,0.92716538,-60.732117,-71.87125)" />
    </clipPath>
    <clipPath
       id="clipPath9168"
       clipPathUnits="userSpaceOnUse">
      <path
         id="path9170"
         d="m 89.368447,130.31249 -21.997045,-12.7 -10e-7,-25.399998 21.997045,-12.700001 21.997044,12.699999 0,25.4 z"
         style="display:inline;opacity:1;fill:#0b1728;fill-opacity:1;stroke-width:0.16493505"
         transform="matrix(0.92518243,0,0,0.92716538,-60.732117,-71.87125)" />
    </clipPath>
    <clipPath
       id="clipPath11489"
       clipPathUnits="userSpaceOnUse">
      <path
         id="path11491"
         d="m 89.368447,130.31249 -21.997045,-12.7 -10e-7,-25.399998 21.997045,-12.700001 21.997044,12.699999 0,25.4 z"
         style="display:inline;opacity:1;fill:#0b1728;fill-opacity:1;stroke-width:0.16493505"
         transform="matrix(0.92518243,0,0,0.92716538,-60.732117,-71.87125)" />
    </clipPath>
    <clipPath
       id="clipPath11493"
       clipPathUnits="userSpaceOnUse">
      <path
         id="path11495"
         d="m 89.368447,130.31249 -21.997045,-12.7 -10e-7,-25.399998 21.997045,-12.700001 21.997044,12.699999 0,25.4 z"
         style="display:inline;opacity:1;fill:#0b1728;fill-opacity:1;stroke-width:0.16493505"
         transform="matrix(0.92518243,0,0,0.92716538,-60.732117,-71.87125)" />
    </clipPath>
    <clipPath
       id="clipPath11497"
       clipPathUnits="userSpaceOnUse">
      <path
         id="path11499"
         d="m 89.368447,130.31249 -21.997045,-12.7 -10e-7,-25.399998 21.997045,-12.700001 21.997044,12.699999 0,25.4 z"
         style="display:inline;opacity:1;fill:#0b1728;fill-opacity:1;stroke-width:0.16493505"
         transform="matrix(0.92518243,0,0,0.92716538,-60.732117,-71.87125)" />
    </clipPath>
    <clipPath
       id="clipPath11501"
       clipPathUnits="userSpaceOnUse">
      <path
         id="path11503"
         d="m 89.368447,130.31249 -21.997045,-12.7 -10e-7,-25.399998 21.997045,-12.700001 21.997044,12.699999 0,25.4 z"
         style="display:inline;opacity:1;fill:#0b1728;fill-opacity:1;stroke-width:0.16493505"
         transform="matrix(0.92518243,0,0,0.92716538,-60.732117,-71.87125)" />
    </clipPath>
    <clipPath
       id="clipPath11505"
       clipPathUnits="userSpaceOnUse">
      <path
         id="path11507"
         d="m 89.368447,130.31249 -21.997045,-12.7 -10e-7,-25.399998 21.997045,-12.700001 21.997044,12.699999 0,25.4 z"
         style="display:inline;opacity:1;fill:#0b1728;fill-opacity:1;stroke-width:0.16493505"
         transform="matrix(0.92518243,0,0,0.92716538,-60.732117,-71.87125)" />
    </clipPath>
    <clipPath
       id="clipPath11512"
       clipPathUnits="userSpaceOnUse">
      <path
         id="path11514"
         d="m 89.368447,130.31249 -21.997045,-12.7 -10e-7,-25.399998 21.997045,-12.700001 21.997044,12.699999 0,25.4 z"
         style="display:inline;opacity:1;fill:#0b1728;fill-opacity:1;stroke-width:0.16493505"
         transform="matrix(0.92518243,0,0,0.92716538,-60.732117,-71.87125)" />
    </clipPath>
    <clipPath
       id="clipPath11516"
       clipPathUnits="userSpaceOnUse">
      <path
         id="path11518"
         d="m 89.368447,130.31249 -21.997045,-12.7 -10e-7,-25.399998 21.997045,-12.700001 21.997044,12.699999 0,25.4 z"
         style="display:inline;opacity:1;fill:#0b1728;fill-opacity:1;stroke-width:0.16493505"
         transform="matrix(0.92518243,0,0,0.92716538,-60.732117,-72.929583)" />
    </clipPath>
    <clipPath
       id="clipPath11520"
       clipPathUnits="userSpaceOnUse">
      <path
         id="path11522"
         d="m 89.368447,130.31249 -21.997045,-12.7 -10e-7,-25.399998 21.997045,-12.700001 21.997044,12.699999 0,25.4 z"
         style="display:inline;opacity:1;fill:#0b1728;fill-opacity:1;stroke-width:0.16493505"
         transform="matrix(0.92518243,0,0,0.92716538,-60.732117,-72.400417)" />
    </clipPath>
    <filter
       height="1.0415308"
       y="-0.020765389"
       width="1.0145955"
       x="-0.0072977716"
       id="filter11878"
       style="color-interpolation-filters:sRGB">
      <feGaussianBlur
         id="feGaussianBlur11880"
         stdDeviation="0.14497775" />
    </filter>
    <filter
       height="1.0378395"
       y="-0.018919727"
       width="1.0128635"
       x="-0.0064317596"
       id="filter11886"
       style="color-interpolation-filters:sRGB">
      <feGaussianBlur
         id="feGaussianBlur11888"
         stdDeviation="0.12656796" />
    </filter>
    <filter
       height="1.0487464"
       y="-0.024373201"
       width="1.0101489"
       x="-0.0050744274"
       id="filter11910"
       style="color-interpolation-filters:sRGB">
      <feGaussianBlur
         id="feGaussianBlur11912"
         stdDeviation="0.10013999" />
    </filter>
    <filter
       height="1.0282042"
       y="-0.014102091"
       width="1.0096681"
       x="-0.00483404"
       id="filter11918"
       style="color-interpolation-filters:sRGB">
      <feGaussianBlur
         id="feGaussianBlur11920"
         stdDeviation="0.095232518" />
    </filter>
    <filter
       height="1.031034"
       y="-0.015516984"
       width="1.007438"
       x="-0.003719023"
       id="filter11922"
       style="color-interpolation-filters:sRGB">
      <feGaussianBlur
         id="feGaussianBlur11924"
         stdDeviation="0.073609749" />
    </filter>
    <filter
       height="1.0113136"
       y="-0.0056568037"
       width="1.0030462"
       x="-0.0015231015"
       id="filter11962"
       style="color-interpolation-filters:sRGB">
      <feGaussianBlur
         id="feGaussianBlur11964"
         stdDeviation="0.030702185" />
    </filter>
    <filter
       height="1.0046148"
       y="-0.0023074119"
       width="1.0016217"
       x="-0.00081084544"
       id="filter11970"
       style="color-interpolation-filters:sRGB">
      <feGaussianBlur
         id="feGaussianBlur11972"
         stdDeviation="0.015957684" />
    </filter>
    <filter
       id="filter11980"
       style="color-interpolation-filters:sRGB">
      <feBlend
         id="feBlend11982"
         in2="BackgroundImage"
         mode="difference" />
    </filter>
  </defs>
  <metadata
     id="metadata5">
    <rdf:RDF>
      <cc:Work
         rdf:about="">
        <dc:format>image/svg+xml</dc:format>
        <dc:type
           rdf:resource="http://purl.org/dc/dcmitype/StillImage" />
        <dc:title></dc:title>
      </cc:Work>
    </rdf:RDF>
  </metadata>
  <g
     transform="translate(0,-246.20002)"
     style="display:inline;opacity:1"
     id="layer1">
    <path
       transform="matrix(0.99786129,0,0,1,-67.227313,166.68751)"
       style="fill:#0b1728;fill-opacity:1;stroke-width:0.16493505"
       d="m 89.368447,130.31249 -21.997045,-12.7 -10e-7,-25.399998 21.997045,-12.700001 21.997044,12.699999 0,25.4 z"
       id="path3733" />
    <path
       transform="matrix(0.92518243,0,0,0.92716538,-60.732116,174.32877)"
       style="display:inline;opacity:1;fill:#0b1728;fill-opacity:1;stroke-width:0.16493505"
       d="m 89.368447,130.31249 -21.997045,-12.7 -10e-7,-25.399998 21.997045,-12.700001 21.997044,12.699999 0,25.4 z"
       id="path1161" />
  </g>
  <g
     style="display:inline;opacity:0.5"
     id="layer2">
    <path
       clip-path="url(#clipPath11505)"
       id="path962-7"
       d="m -0.03022496,21.871502 c 0,0 46.57512896,-0.960002 46.57512896,-0.960002 0,0 -0.604755,-10.341041 -0.604755,-10.341041 0,0 -2.115938,-1.2713074 -2.115938,-1.2713074 0,0 -1.940265,-1.9632647 -1.940265,-1.9632647 0,0 -1.751804,0.6023793 -1.751804,0.6023793 0,0 -3.191617,-1.3275924 -3.191617,-1.3275924 0,0 -1.783912,0.3296506 -1.783912,0.3296506 0,0 -2.231287,-0.017924 -2.231287,-0.017924 0,0 -2.283263,-0.9608877 -2.283263,-0.9608877 0,0 -2.697272,0.041824 -2.697272,0.041824 0,0 -0.875112,0.4418233 -1.478692,0.8138921 -0.603584,0.372071 -0.514945,0.7389093 -0.812602,0.7719823 -0.297656,0.03307 -1.35771,-0.195717 -2.134923,-0.4768378 -0.777214,-0.2811188 -1.613065,-0.701939 -1.778431,-0.735011 -0.165364,-0.03308 -0.150768,0.147427 -0.803959,-0.017934 -0.653189,-0.165364 -1.445128,-1.2679157 -1.643566,-1.1686957 -0.198438,0.09922 -1.215191,0.8932476 -1.661677,1.1826386 -0.446483,0.289388 -0.614721,1.2064719 -0.813158,1.2726179 -0.198438,0.06615 -0.748394,-0.176671 -1.244488,-0.259351 -0.496095,-0.08268 -0.818006,-0.053441 -0.818006,-0.053441 0,0 -0.414883,-0.4362412 -0.646393,-0.659482 -0.231511,-0.223242 -0.511382,-0.4986199 -0.842111,-0.5978389 -0.330729,-0.09922 -0.617604,0.346174 -1.303868,0.27176 -0.686263,-0.07441 -1.693813,-0.3279045 -1.9914671,-0.3279045 -0.2976575,0 -0.717223,-0.1531819 -1.163708,-0.062236 C 8.3612579,6.0484465 7.8195647,6.0210999 7.5219087,6.1864669 7.2242497,6.3518299 6.8728794,6.7216285 6.4842724,7.0275513 6.0956654,7.3334753 5.6687333,7.1959805 5.2057123,7.2621295 4.7426923,7.3282795 4.1646492,6.805475 3.5528002,6.582233 2.9409512,6.358991 2.3464407,7.0619803 2.0157117,6.9627613 1.6849827,6.8635423 0.78133685,6.4598195 0.10334185,6.3523325 -0.57465315,6.2448455 -1.133568,6.327876 -1.133568,6.327876 c 0,0 0.94593193,15.612637 0.94593193,15.612637"
       style="opacity:0.2;fill:url(#linearGradient988-6);fill-opacity:1;stroke:none;stroke-width:0.26458332px;stroke-linecap:butt;stroke-linejoin:miter;stroke-opacity:1;filter:url(#filter11878)" />
    <path
       clip-path="url(#clipPath11501)"
       style="opacity:0.2;fill:url(#linearGradient988);fill-opacity:1;stroke:none;stroke-width:0.26458332px;stroke-linecap:butt;stroke-linejoin:miter;stroke-opacity:1;filter:url(#filter11886)"
       d="m 0.14059185,24.766076 c 0,0 46.12074915,-0.856427 46.12074915,-0.856427 0,0 -0.06691,-10.020148 -0.06691,-10.020148 0,0 -2.077995,-1.305411 -2.077995,-1.305411 0,0 -1.815157,-2.134113 -1.815157,-2.134113 0,0 -2.302125,0.08232 -2.302125,0.08232 0,0 -2.366746,-0.6954428 -2.366746,-0.6954428 0,0 -2.32118,-0.03314 -2.32118,-0.03314 0,0 -2.214255,0.126249 -2.214255,0.126249 0,0 -2.425336,-1.0071804 -2.425336,-1.0071804 0,0 -2.550934,0.06939 -2.550934,0.06939 0,0 -0.750597,0.5737434 -1.354178,0.9458134 -0.603581,0.3720708 -0.845811,0.5919328 -1.143468,0.6250058 -0.297656,0.03307 -1.139804,-0.200482 -1.917018,-0.481603 -0.777214,-0.2811198 -1.505708,-0.5399218 -1.671073,-0.5729938 -0.165364,-0.03308 -0.729156,-0.02429 -1.382346,-0.1896514 -0.65319,-0.165364 -0.899538,-0.16812 -1.097976,-0.0689 -0.198438,0.09922 -1.16264,0.05357 -1.609125,0.3429614 -0.446484,0.289388 -0.792833,0.9347628 -0.99127,1.0009078 -0.198438,0.06615 -0.746736,-0.124063 -1.24283,-0.206743 -0.496094,-0.08268 -0.882188,-0.05825 -0.882188,-0.05825 0,0 -0.204865,-0.286355 -0.436376,-0.5095968 -0.23151,-0.223242 -0.60428,-0.6405534 -0.935009,-0.7397724 -0.330729,-0.09922 -1.092229,-0.2261827 -1.778493,-0.3005967 -0.686263,-0.07441 -1.223097,0.2318827 -1.520752,0.2318827 -0.297657,0 -0.7424619,-0.1460257 -1.1889463,-0.05508 -0.4464844,0.09095 -0.9653337,0.06605 -1.26299,0.231417 C 7.4090064,9.3523356 7.1183788,9.8461533 6.7297721,10.152077 6.3411653,10.458001 5.8540325,10.008958 5.3910117,10.075104 4.9279909,10.14125 4.4090802,10.786597 3.7972312,10.563355 3.1853823,10.340113 2.5378493,10.063571 2.2071201,9.9643523 1.8763909,9.8651333 0.90331818,9.4654706 0.22532339,9.3579836 c -0.67799478,-0.107487 -1.19259664,-0.160021 -1.19259664,-0.160021 0,0 0.94178465,15.6245024 0.94178465,15.6245024"
       id="path962" />
    <path
       clip-path="url(#clipPath11497)"
       style="opacity:0.4;fill:url(#linearGradient974);fill-opacity:1;stroke:none;stroke-width:0.26458332px;stroke-linecap:butt;stroke-linejoin:miter;stroke-opacity:1;filter:url(#filter11910)"
       d="m -0.78201134,20.727035 c 0,0 47.15696134,0.411603 47.15696134,0.411603 0,0 0.01181,-7.982742 0.01181,-7.982742 0,0 -2.111121,0.67808 -2.111121,0.67808 0,0 -1.859385,1.074712 -2.123969,1.074712 -0.264583,0 -1.254229,-0.52142 -1.584958,-0.653711 -0.330729,-0.132292 -1.383967,-0.457526 -1.780842,-0.655963 -0.396875,-0.198438 -1.519979,-1.04997 -1.916854,-1.182261 -0.396875,-0.132292 -1.537364,-0.404819 -2.132677,-0.404819 -0.595312,0 -0.646691,-0.594917 -1.175858,0.132687 -0.529167,0.727604 -0.651923,1.817786 -1.114944,1.883932 -0.463021,0.06615 -1.009839,-0.355692 -1.671297,-0.355692 -0.661459,0 -6.218564,-0.811199 -6.218564,-0.811199 0,0 -2.173332,0.533292 -3.099373,0.797876 -0.926042,0.264583 -5.02244,0.618186 -5.617753,0.485895 -0.595309,-0.132288 -1.682592,-0.800882 -2.211759,-1.197757 -0.529166,-0.396875 -1.532512,-0.428613 -2.392408,-0.627051 -0.859896,-0.198437 -1.7240783,-1.357345 -2.7162658,-0.96047 -0.9921875,0.396875 -1.5381126,0.804162 -2.1995709,1.201037 -0.6614584,0.396875 -3.7026837,0.258257 -3.9672671,0.456695 -0.2645833,0.198437 -0.833291,0.06625 -1.296312,0.264691 -0.46302081,0.198437 -1.30638122,0.05263 -1.57096455,0.317216 -0.26458331,0.264583 -0.45942676,0.540687 -0.45942676,1.202146 0,0.661458 0.19357303,5.872388 0.19357303,5.872388 0,0 -0.0913003,0.02129 -0.0913003,0.02129"
       id="path964" />
    <path
       clip-path="url(#clipPath11493)"
       id="path962-5"
       d="m -0.28946729,31.427524 c 0,0 46.18485029,-0.789683 46.18485029,-0.789683 0,0 -0.212957,-10.213533 -0.212957,-10.213533 0,0 -1.990494,-1.18022 -1.990494,-1.18022 0,0 -2.354536,-2.284395 -2.354536,-2.284395 0,0 -1.722126,0.293927 -1.722126,0.293927 0,0 -2.788138,-0.885988 -2.788138,-0.885988 0,0 -1.932474,0.13004 -1.932474,0.13004 0,0 -2.219727,0.102651 -2.219727,0.102651 0,0 -2.522085,-1.176973 -2.522085,-1.176973 0,0 -2.443071,0.302958 -2.443071,0.302958 0,0 -0.879611,0.212658 -1.483191,0.584728 -0.603584,0.372071 -1.000749,0.743233 -1.298406,0.776306 -0.297656,0.03307 -0.866394,0.01106 -1.643607,-0.270059 -0.777214,-0.28112 -1.471471,-0.620501 -1.636837,-0.653573 -0.165364,-0.03308 -0.71861,-0.004 -1.371801,-0.169407 -0.653189,-0.165364 -0.748921,0.754297 -0.947359,0.853517 -0.198438,0.09922 -1.473117,-1.031515 -1.919603,-0.742124 -0.446483,0.289388 -0.772955,0.921651 -0.971392,0.987797 -0.198438,0.06615 -0.657426,0.200835 -1.15352,0.118155 -0.496095,-0.08268 -0.873576,0.04112 -0.873576,0.04112 0,0 -0.277056,-0.667886 -0.508566,-0.891128 -0.231511,-0.223242 -1.077226,-0.68687 -1.407955,-0.786089 -0.330729,-0.09922 -0.637291,-0.200175 -1.323555,-0.274589 -0.686263,-0.07441 -1.2121987,0.02208 -1.5098537,0.02208 -0.2976574,0 -0.7566976,0.06219 -1.2031826,0.15314 -0.446484,0.09095 -0.9917035,0.04751 -1.2893595,0.212872 -0.297659,0.165363 -0.6172988,0.695322 -1.0059058,1.001246 -0.388607,0.305924 -0.8035935,-0.204256 -1.2666145,-0.138107 -0.46302,0.06615 -0.9055471,0.90608 -1.5173961,0.682838 -0.611849,-0.223245 -1.344773,-0.683434 -1.6755022,-0.782653 -0.3307292,-0.09922 -1.29316935,-0.63104 -1.97116415,-0.738527 -0.67799468,-0.107487 -1.11700345,1.082085 -1.11700345,1.082085 0,0 0.94231295,14.684234 0.94231295,14.684234"
       style="opacity:0.4;fill:url(#linearGradient988-8);fill-opacity:1;stroke:none;stroke-width:0.26458332px;stroke-linecap:butt;stroke-linejoin:miter;stroke-opacity:1;filter:url(#filter11918)" />
    <path
       clip-path="url(#clipPath11489)"
       id="path964-9"
       d="m -1.4129524,28.853731 c 0,0 47.4166464,0.58025 47.4166464,0.58025 0,0 1.81e-4,-7.999355 1.81e-4,-7.999355 0,0 -2.235788,0.559541 -2.235788,0.559541 0,0 -1.834223,1.051654 -2.098809,1.051654 -0.264583,0 -1.196634,-0.257497 -1.527363,-0.389788 -0.33073,-0.132293 -1.113837,-0.52607 -1.510712,-0.724507 -0.396875,-0.198438 -1.897285,-1.226929 -2.29416,-1.35922 -0.396875,-0.132292 -1.619058,-0.525856 -2.214374,-0.525856 -0.595309,0 -0.439979,-0.287244 -0.969146,0.44036 -0.529166,0.727604 -0.646588,1.808084 -1.109609,1.874231 -0.463024,0.06615 -1.107963,-0.553372 -1.769421,-0.553372 -0.661458,0 -6.307674,-0.780523 -6.307674,-0.780523 0,0 -1.993836,1.594313 -2.919878,1.858897 -0.926034,0.264582 -5.107152,-0.441002 -5.702465,-0.573293 -0.595309,-0.132288 -1.750892,-0.883363 -2.280059,-1.280238 -0.529166,-0.396875 -1.447202,-0.341414 -2.307098,-0.539852 -0.8598954,-0.198437 -1.7235335,-2.302875 -2.7157215,-1.906 -0.992188,0.396875 -1.4358914,2.133608 -2.0973494,2.530483 -0.661458,0.396875 -3.8342412,-0.15954 -4.0988245,0.0389 -0.2645834,0.198437 -0.7510921,0.256112 -1.21411318,0.454553 -0.4630208,0.198437 -1.3621396,-0.11044 -1.626723,0.154146 -0.26458322,0.264583 -0.50334812,0.534629 -0.50334812,1.196087 0,0.661459 0.3021314,6.283731 0.3021314,6.283731 0,0 -0.07239,0.677565 -0.07239,0.677565"
       style="opacity:0.6;fill:url(#linearGradient974-4);fill-opacity:1;stroke:none;stroke-width:0.26458332px;stroke-linecap:butt;stroke-linejoin:miter;stroke-opacity:1;filter:url(#filter11922)" />
  </g>
  <g
     style="display:inline;opacity:1"
     id="layer3">
    <a
       id="a19097"
       style="display:inline;opacity:1;fill:#d7e3f4"
       transform="translate(0.27131795,4.2579402)">
      <text
         transform="translate(-0.27131777,-4.2579401)"
         xml:space="preserve"
         style="font-style:normal;font-weight:normal;font-size:10.58333302px;line-height:1.25;font-family:sans-serif;letter-spacing:0px;word-spacing:0px;display:inline;opacity:1;fill:#d7e3f4;fill-opacity:1;stroke:none;stroke-width:0.5;stroke-linecap:round;stroke-linejoin:round;stroke-miterlimit:4;stroke-dasharray:none;stroke-dashoffset:0;stroke-opacity:1;paint-order:stroke fill markers"
         x="5.3625541"
         y="29.076588"
         id="text830"
         clip-path="url(#clipPath17268)"><tspan
           id="tspan828"
           x="5.3625541"
           y="29.076588"
           style="font-style:normal;font-variant:normal;font-weight:bold;font-stretch:normal;font-size:11.28888893px;font-family:'Bell MT';-inkscape-font-specification:'Bell MT Bold';fill:#d7e3f4;fill-opacity:1;stroke:none;stroke-width:0.5;stroke-linecap:round;stroke-linejoin:round;stroke-miterlimit:4;stroke-dasharray:none;stroke-dashoffset:0;stroke-opacity:1;paint-order:stroke fill markers">MiSTr</tspan></text>
    </a>
  </g>
  <g
     style="display:inline;opacity:0.5"
     id="layer4">
    <path
       transform="translate(0,0.52916667)"
       clip-path="url(#clipPath11520)"
       id="path964-9-6"
       d="m -1.4650003,33.801995 c 0,0 48.3784193,1.801663 48.3784193,1.801663 0,0 -0.226346,-8.468498 -0.226346,-8.468498 0,0 -2.385098,-0.101047 -2.385098,-0.101047 0,0 -2.022388,0.809699 -2.286974,0.809699 -0.264583,0 -0.958301,0.341104 -1.28903,0.208814 -0.330729,-0.132293 -1.114636,-0.446701 -1.511511,-0.645138 -0.396875,-0.198438 -2.459793,-2.518815 -2.856668,-2.651106 -0.396875,-0.132292 -0.938596,0.514605 -1.533911,0.514605 -0.59531,0 -0.728634,-0.660749 -1.257801,0.06685 -0.529164,0.727604 -0.477087,2.392673 -0.94011,2.45882 -0.463024,0.06615 -1.395937,-0.882613 -2.057396,-0.882613 -0.661458,0 -6.183873,-1.009289 -6.183873,-1.009289 0,0 -1.948315,1.710814 -2.874358,1.975398 -0.926034,0.264582 -4.942546,0.0092 -5.537859,-0.123123 -0.595309,-0.132288 -1.549295,-1.370395 -2.078462,-1.76727 -0.529166,-0.396875 -1.897407,-0.841844 -2.757303,-1.040282 -0.859896,-0.198445 -1.7150757,-2.726444 -2.707263,-2.329569 -0.9921881,0.396875 -0.7297187,3.341478 -1.3911768,3.738353 -0.661458,0.396875 -5.0506911,-0.649153 -5.3152744,-0.450712 -0.2645834,0.198437 -0.138694,0.71349 -0.6017149,0.911931 -0.46302099,0.198437 -1.39720692,-0.234152 -1.6617899,0.03043 -0.264584,0.264583 -0.5602248,0.282582 -0.5602248,0.94404 0,0.661459 0.12650189,6.330734 0.12650189,6.330734 0,0 -0.0933367,0.748276 -0.0933367,0.748276"
       style="display:inline;opacity:0.6;fill:url(#linearGradient974-4-7);fill-opacity:1;stroke:none;stroke-width:0.26458332px;stroke-linecap:butt;stroke-linejoin:miter;stroke-opacity:1;filter:url(#filter11962)" />
    <path
       transform="translate(0,1.0583333)"
       clip-path="url(#clipPath11516)"
       id="path962-5-8-5"
       d="m 0.3913003,46.365305 c 0,0 46.1109497,-1.005672 46.1109497,-1.005672 0,0 -0.0777,-9.959289 -0.0777,-9.959289 0,0 -2.159918,-1.365219 -2.159918,-1.365219 0,0 -2.565824,-2.319315 -2.565824,-2.319315 0,0 -1.334524,0.430079 -1.334524,0.430079 0,0 -3.10397,-1.076575 -3.10397,-1.076575 0,0 -1.181352,0.888823 -1.181352,0.888823 0,0 -2.732321,-0.423131 -2.732321,-0.423131 0,0 -2.44371,-0.982133 -2.44371,-0.982133 0,0 -2.406401,0.377909 -2.406401,0.377909 0,0 -1.201906,-0.972166 -1.805484,-0.600096 -0.603586,0.372071 -0.621783,1.659328 -0.919441,1.692401 -0.297656,0.03307 -1.379208,0.07907 -2.156421,-0.202043 -0.777213,-0.28112 -1.123006,-0.675982 -1.288372,-0.709054 -0.165364,-0.03308 -1.151805,-1.111154 -1.804996,-1.276561 -0.653189,-0.165364 -0.345212,1.812336 -0.54365,1.911556 -0.198438,0.09922 -1.379119,-1.069919 -1.825605,-0.780528 -0.446483,0.289388 -0.624768,1.010247 -0.823205,1.076393 -0.198438,0.06615 -0.896463,0.178797 -1.392557,0.09611 -0.496095,-0.08268 -1.11493,-1.010082 -1.11493,-1.010082 0,0 -0.0017,0.488317 -0.233202,0.265075 -0.231511,-0.223242 -1.341767,-0.899453 -1.672496,-0.998672 -0.330729,-0.09922 -0.329147,-0.450663 -1.015411,-0.525074 -0.686263,-0.07441 -1.25923,0.273268 -1.556886,0.273268 -0.297656,0 -0.8662295,-0.0475 -1.3127145,0.04345 -0.446486,0.09095 -1.0776718,-0.22493 -1.3753278,-0.05957 C 7.3581737,30.292718 7.0457394,31.26486 6.6571324,31.570784 6.2685259,31.87671 6.1761516,32.50077 5.7131305,32.566919 5.2501107,32.633069 4.6795013,32.355746 4.0676523,32.132504 3.4558031,31.909259 2.201046,31.231047 1.8703169,31.131828 1.5395878,31.032608 1.0735458,31.66629 0.39555085,31.558803 c -0.6779946,-0.107487 -1.12602838,0.184231 -1.12602838,0.184231 0,0 1.09257674,14.680589 1.09257674,14.680589"
       style="display:inline;opacity:0.7;fill:url(#linearGradient988-8-3-9);fill-opacity:1;stroke:none;stroke-width:0.26458332px;stroke-linecap:butt;stroke-linejoin:miter;stroke-opacity:1;filter:url(#filter11970)" />
    <path
       clip-path="url(#clipPath11512)"
       style="display:inline;opacity:0.6;fill:#0b1728;fill-opacity:1;stroke:none;stroke-width:0.26458332px;stroke-linecap:butt;stroke-linejoin:miter;stroke-opacity:1;filter:url(#filter11980)"
       d="M 0.60982195,51.749311 46.249341,51.3165 l -0.128606,-9.594233 -1.397731,-0.06608 -2.421725,-4.481208 -1.242509,0.38348 -2.791874,-0.62482 -1.900455,0.391537 -2.703508,0.335342 -2.053407,-1.458035 -2.845407,-0.539616 c 0,0 -1.696579,0.460337 -2.300155,0.832407 -0.603586,0.372071 -0.621702,0.303976 -0.919361,0.337049 -0.297655,0.03307 -1.43451,0.650869 -2.211723,0.369756 -0.777213,-0.28112 -0.490239,-0.934428 -0.655605,-0.9675 -0.165364,-0.03308 -0.575436,-0.700432 -1.228627,-0.865839 -0.653189,-0.165364 -0.783518,1.445193 -0.981956,1.544413 -0.198438,0.09922 -1.023929,-0.237365 -1.470415,0.05203 -1.626616,0.0094 -1.212899,-0.832607 -3.66242,1.386247 -0.231511,-0.223242 -0.86903,-1.462606 -1.199759,-1.561825 -0.330729,-0.09922 -0.809234,-0.811514 -1.495496,-0.885925 -0.686263,-0.07441 -1.440794,-1.274041 -1.750143,-1.472822 -0.250413,-0.160911 -1.2454017,-0.225012 -1.6918865,-0.134062 -0.4464862,0.09095 -1.252711,0.965015 -1.415897,1.241456 -0.332739,0.276444 -0.086673,1.591236 -0.4752805,1.89716 C 6.9167885,37.741338 5.8591144,38.642718 5.3960933,38.708867 4.9330735,38.775017 4.9553958,36.727872 4.3435469,36.50463 3.7316976,36.281385 1.9758741,37.212654 1.6451448,37.113435 1.3144158,37.014215 1.1729905,38.07847 0.49499542,37.970983 -0.18299858,37.863496 -1.025895,37.106345 -1.025895,37.106345 l 1.26209703,13.361168"
       id="path962-5-8-5-9" />
  </g>
</svg>
