<?xml version="1.0" encoding="UTF-8" standalone="no"?>
<!-- Created with Inkscape (http://www.inkscape.org/) -->

<svg
   xmlns:dc="http://purl.org/dc/elements/1.1/"
   xmlns:cc="http://creativecommons.org/ns#"
   xmlns:rdf="http://www.w3.org/1999/02/22-rdf-syntax-ns#"
   xmlns:svg="http://www.w3.org/2000/svg"
   xmlns="http://www.w3.org/2000/svg"
   xmlns:sodipodi="http://sodipodi.sourceforge.net/DTD/sodipodi-0.dtd"
   xmlns:inkscape="http://www.inkscape.org/namespaces/inkscape"
   width="4.3899999cm"
   height="5.0799999cm"
   viewBox="0 0 43.899999 50.799998"
   version="1.1"
   id="svg8"
   inkscape:version="0.92.4 (5da689c313, 2019-01-14)"
   sodipodi:docname="endocbetah1_ink.svg"
   inkscape:export-filename="D:\Profils\mcanouil\Downloads\endoc_hex.png"
   inkscape:export-xdpi="1278.5"
   inkscape:export-ydpi="1278.5">
  <defs
     id="defs2">
    <linearGradient
       gradientUnits="userSpaceOnUse"
       gradientTransform="matrix(0.16399225,0,0,0.04212939,6.8448073,13.957056)"
       id="b"
       x1="31.573018"
       x2="123.21067"
       y1="250.77562"
       y2="250.77562">
      <stop
         offset="0"
         id="stop1604" />
      <stop
         stop-color="#ababab"
         offset=".48946"
         id="stop1606" />
      <stop
         offset="1"
         id="stop1608" />
    </linearGradient>
    <radialGradient
       id="a">
      <stop
         stop-color="#56ff56"
         stop-opacity=".996"
         offset="0"
         id="stop1611" />
      <stop
         stop-color="#007f00"
         stop-opacity=".996"
         offset="1"
         id="stop1613" />
    </radialGradient>
    <radialGradient
       id="radialGradient2254">
      <stop
         stop-color="#56ff56"
         stop-opacity=".996"
         offset="0"
         id="stop2250" />
      <stop
         stop-color="#007f00"
         stop-opacity=".996"
         offset="1"
         id="stop2252" />
    </radialGradient>
    <radialGradient
       id="radialGradient2260">
      <stop
         stop-color="#56ff56"
         stop-opacity=".996"
         offset="0"
         id="stop2256" />
      <stop
         stop-color="#007f00"
         stop-opacity=".996"
         offset="1"
         id="stop2258" />
    </radialGradient>
    <radialGradient
       id="radialGradient2266">
      <stop
         stop-color="#56ff56"
         stop-opacity=".996"
         offset="0"
         id="stop2262" />
      <stop
         stop-color="#007f00"
         stop-opacity=".996"
         offset="1"
         id="stop2264" />
    </radialGradient>
    <radialGradient
       id="radialGradient2272">
      <stop
         stop-color="#56ff56"
         stop-opacity=".996"
         offset="0"
         id="stop2268" />
      <stop
         stop-color="#007f00"
         stop-opacity=".996"
         offset="1"
         id="stop2270" />
    </radialGradient>
    <radialGradient
       id="radialGradient2278">
      <stop
         stop-color="#56ff56"
         stop-opacity=".996"
         offset="0"
         id="stop2274" />
      <stop
         stop-color="#007f00"
         stop-opacity=".996"
         offset="1"
         id="stop2276" />
    </radialGradient>
    <radialGradient
       id="radialGradient2284">
      <stop
         stop-color="#56ff56"
         stop-opacity=".996"
         offset="0"
         id="stop2280" />
      <stop
         stop-color="#007f00"
         stop-opacity=".996"
         offset="1"
         id="stop2282" />
    </radialGradient>
    <radialGradient
       id="radialGradient2290">
      <stop
         stop-color="#56ff56"
         stop-opacity=".996"
         offset="0"
         id="stop2286" />
      <stop
         stop-color="#007f00"
         stop-opacity=".996"
         offset="1"
         id="stop2288" />
    </radialGradient>
    <radialGradient
       id="radialGradient2296">
      <stop
         stop-color="#56ff56"
         stop-opacity=".996"
         offset="0"
         id="stop2292" />
      <stop
         stop-color="#007f00"
         stop-opacity=".996"
         offset="1"
         id="stop2294" />
    </radialGradient>
    <radialGradient
       id="radialGradient2302">
      <stop
         stop-color="#56ff56"
         stop-opacity=".996"
         offset="0"
         id="stop2298" />
      <stop
         stop-color="#007f00"
         stop-opacity=".996"
         offset="1"
         id="stop2300" />
    </radialGradient>
    <radialGradient
       id="radialGradient2308">
      <stop
         stop-color="#56ff56"
         stop-opacity=".996"
         offset="0"
         id="stop2304" />
      <stop
         stop-color="#007f00"
         stop-opacity=".996"
         offset="1"
         id="stop2306" />
    </radialGradient>
  </defs>
  <sodipodi:namedview
     id="base"
     pagecolor="#ffffff"
     bordercolor="#666666"
     borderopacity="1.0"
     inkscape:pageopacity="0.0"
     inkscape:pageshadow="2"
     inkscape:zoom="2.8284271"
     inkscape:cx="40.153995"
     inkscape:cy="91.700593"
     inkscape:document-units="mm"
     inkscape:current-layer="layer5"
     showgrid="false"
     inkscape:snap-global="true"
     showguides="false"
     inkscape:snap-bbox="true"
     inkscape:snap-center="true"
     inkscape:window-width="1920"
     inkscape:window-height="1017"
     inkscape:window-x="1912"
     inkscape:window-y="-8"
     inkscape:window-maximized="1"
     units="cm">
    <inkscape:grid
       type="xygrid"
       id="grid3723" />
  </sodipodi:namedview>
  <metadata
     id="metadata5">
    <rdf:RDF>
      <cc:Work
         rdf:about="">
        <dc:format>image/svg+xml</dc:format>
        <dc:type
           rdf:resource="http://purl.org/dc/dcmitype/StillImage" />
        <dc:title />
      </cc:Work>
    </rdf:RDF>
  </metadata>
  <g
     inkscape:label="Calque 1"
     inkscape:groupmode="layer"
     id="layer1"
     style="display:inline"
     transform="translate(0,-246.20002)">
    <path
       sodipodi:type="star"
       id="path3733"
       sodipodi:sides="6"
       sodipodi:cx="89.368446"
       sodipodi:cy="104.91249"
       sodipodi:r1="25.4"
       sodipodi:r2="21.997046"
       sodipodi:arg1="1.5707963"
       sodipodi:arg2="2.0943951"
       inkscape:flatsided="true"
       inkscape:rounded="0"
       inkscape:randomized="0"
       d="m 89.368447,130.31249 -21.997045,-12.7 -10e-7,-25.399998 21.997045,-12.700001 21.997044,12.699999 0,25.4 z"
       style="fill:#554400;fill-opacity:1;stroke-width:0.16493505"
       inkscape:transform-center-x="4.3097664e-06"
       inkscape:transform-center-y="-3.0197514e-06"
       transform="matrix(0.99786129,0,0,1,-67.227313,166.68751)"
       inkscape:export-xdpi="1278.5"
       inkscape:export-ydpi="1278.5" />
  </g>
  <g
     inkscape:groupmode="layer"
     id="layer2"
     inkscape:label="Calque 2"
     style="display:inline"
     transform="translate(0,-246.20002)">
    <path
       transform="matrix(0.92518242,0,0,0.92716537,-60.732115,174.32877)"
       inkscape:transform-center-y="0.96516912"
       inkscape:transform-center-x="0.83407049"
       style="fill:#fff6d5;fill-opacity:1;stroke-width:0.16493505"
       d="m 89.368447,130.31249 -21.997045,-12.7 -10e-7,-25.399998 21.997045,-12.700001 21.997044,12.699999 0,25.4 z"
       inkscape:randomized="0"
       inkscape:rounded="0"
       inkscape:flatsided="true"
       sodipodi:arg2="2.0943951"
       sodipodi:arg1="1.5707963"
       sodipodi:r2="21.997046"
       sodipodi:r1="25.4"
       sodipodi:cy="104.91249"
       sodipodi:cx="89.368446"
       sodipodi:sides="6"
       id="path3735"
       sodipodi:type="star"
       inkscape:export-xdpi="1358.7406"
       inkscape:export-ydpi="1358.7406"
       inkscape:export-filename="D:\Profils\mcanouil\Downloads\endoc_hex.png" />
    <path
       style="opacity:0;fill:#001a34;fill-opacity:0;stroke-width:0.09354433"
       d="M 11.589965,289.45828 1.3234744,283.50726 v -11.93584 -11.93583 l 10.1729466,-5.88226 c 5.59512,-3.23524 10.237906,-5.92127 10.317302,-5.96895 0.108688,-0.0653 2.691526,1.3869 10.453578,5.87744 l 10.309225,5.96414 v 11.94512 11.94513 l -10.292001,5.95496 c -5.660599,3.27523 -10.322615,5.95117 -10.360034,5.94654 -0.03742,-0.005 -4.687956,-2.68638 -10.334526,-5.95943 z"
       id="path3739"
       inkscape:connector-curvature="0" />
    <path
       style="opacity:0;fill:#001a34;fill-opacity:0;stroke-width:0.09354433"
       d="M 11.589965,289.45828 1.3234744,283.50726 v -11.93584 -11.93583 l 10.1729466,-5.88226 c 5.59512,-3.23524 10.237906,-5.92127 10.317302,-5.96895 0.108688,-0.0653 2.691526,1.3869 10.453578,5.87744 l 10.309225,5.96414 v 11.94512 11.94513 l -10.292001,5.95496 c -5.660599,3.27523 -10.322615,5.95117 -10.360034,5.94654 -0.03742,-0.005 -4.687956,-2.68638 -10.334526,-5.95943 z"
       id="path4546"
       inkscape:connector-curvature="0" />
    <path
       style="opacity:0;fill:#001a34;fill-opacity:0;stroke-width:0.09354433"
       d="M 11.589965,289.45828 1.3234744,283.50726 v -11.93584 -11.93583 l 10.1729466,-5.88226 c 5.59512,-3.23524 10.237906,-5.92127 10.317302,-5.96895 0.108688,-0.0653 2.691526,1.3869 10.453578,5.87744 l 10.309225,5.96414 v 11.94512 11.94513 l -10.292001,5.95496 c -5.660599,3.27523 -10.322615,5.95117 -10.360034,5.94654 -0.03742,-0.005 -4.687956,-2.68638 -10.334526,-5.95943 z"
       id="path4548"
       inkscape:connector-curvature="0" />
    <path
       style="opacity:0;fill:#006f34;fill-opacity:0;stroke-width:0.09354433"
       d="M 11.589965,289.45828 1.3234744,283.50726 v -11.93584 -11.93583 l 10.1729466,-5.88226 c 5.59512,-3.23524 10.237906,-5.92127 10.317302,-5.96895 0.108688,-0.0653 2.691526,1.3869 10.453578,5.87744 l 10.309225,5.96414 v 11.94512 11.94513 l -10.292001,5.95496 c -5.660599,3.27523 -10.322615,5.95117 -10.360034,5.94654 -0.03742,-0.005 -4.687956,-2.68638 -10.334526,-5.95943 z"
       id="path4550"
       inkscape:connector-curvature="0" />
    <path
       style="opacity:0;fill:#001a34;fill-opacity:1;stroke-width:0.09354433"
       d="M 11.589965,289.45828 1.3234744,283.50726 v -11.93584 -11.93583 l 10.1729466,-5.88226 c 5.59512,-3.23524 10.237906,-5.92127 10.317302,-5.96895 0.108688,-0.0653 2.691526,1.3869 10.453578,5.87744 l 10.309225,5.96414 v 11.94512 11.94513 l -10.292001,5.95496 c -5.660599,3.27523 -10.322615,5.95117 -10.360034,5.94654 -0.03742,-0.005 -4.687956,-2.68638 -10.334526,-5.95943 z"
       id="path4552"
       inkscape:connector-curvature="0" />
    <path
       style="opacity:0;fill:#001a34;fill-opacity:1;stroke-width:0.09354433"
       d="M 11.589965,289.45828 1.3234744,283.50726 v -11.93584 -11.93583 l 10.1729466,-5.88226 c 5.59512,-3.23524 10.237906,-5.92127 10.317302,-5.96895 0.108688,-0.0653 2.691526,1.3869 10.453578,5.87744 l 10.309225,5.96414 v 11.94512 11.94513 l -10.292001,5.95496 c -5.660599,3.27523 -10.322615,5.95117 -10.360034,5.94654 -0.03742,-0.005 -4.687956,-2.68638 -10.334526,-5.95943 z"
       id="path4554"
       inkscape:connector-curvature="0" />
    <path
       style="opacity:0;fill:#001a34;fill-opacity:1;stroke-width:0.09354433"
       d="M 11.589965,289.45828 1.3234744,283.50726 v -11.93584 -11.93583 l 10.1729466,-5.88226 c 5.59512,-3.23524 10.237906,-5.92127 10.317302,-5.96895 0.108688,-0.0653 2.691526,1.3869 10.453578,5.87744 l 10.309225,5.96414 v 11.94512 11.94513 l -10.292001,5.95496 c -5.660599,3.27523 -10.322615,5.95117 -10.360034,5.94654 -0.03742,-0.005 -4.687956,-2.68638 -10.334526,-5.95943 z"
       id="path4556"
       inkscape:connector-curvature="0" />
    <path
       style="opacity:0;fill:#001a34;fill-opacity:1;stroke-width:0.09354433"
       d="m 11.59009,289.47026 -10.2664906,-5.95288 0.00145,-11.93003 0.00145,-11.93003 10.2585566,-5.93227 c 5.642206,-3.26275 10.306751,-5.93227 10.365655,-5.93227 0.0589,0 4.723198,2.66952 10.365094,5.93227 l 10.257996,5.93227 0.0013,11.93032 0.0013,11.93032 -10.256523,5.93665 c -5.641083,3.26515 -10.3031,5.94382 -10.360034,5.95259 -0.05693,0.009 -4.723435,-2.66285 -10.370005,-5.93694 z"
       id="path4558"
       inkscape:connector-curvature="0" />
    <path
       style="opacity:0;fill:#001a34;fill-opacity:1;stroke-width:0.09354433"
       d="m 11.59009,289.47026 -10.2664906,-5.95288 0.00145,-11.93003 0.00145,-11.93003 10.2585566,-5.93227 c 5.642206,-3.26275 10.306751,-5.93227 10.365655,-5.93227 0.0589,0 4.723198,2.66952 10.365094,5.93227 l 10.257996,5.93227 0.0013,11.93032 0.0013,11.93032 -10.256523,5.93665 c -5.641083,3.26515 -10.3031,5.94382 -10.360034,5.95259 -0.05693,0.009 -4.723435,-2.66285 -10.370005,-5.93694 z"
       id="path4560"
       inkscape:connector-curvature="0" />
    <path
       style="opacity:0;fill:#001a34;fill-opacity:1;stroke-width:0.09354433"
       d="m 11.59009,289.47026 -10.2664906,-5.95288 0.00145,-11.93003 0.00145,-11.93003 10.2585566,-5.93227 c 5.642206,-3.26275 10.306751,-5.93227 10.365655,-5.93227 0.0589,0 4.723198,2.66952 10.365094,5.93227 l 10.257996,5.93227 0.0013,11.93032 0.0013,11.93032 -10.256523,5.93665 c -5.641083,3.26515 -10.3031,5.94382 -10.360034,5.95259 -0.05693,0.009 -4.723435,-2.66285 -10.370005,-5.93694 z"
       id="path4562"
       inkscape:connector-curvature="0" />
  </g>
  <g
     inkscape:groupmode="layer"
     id="layer3"
     inkscape:label="Calque 3"
     style="display:inline">
    <text
       transform="translate(0,-246.20002)"
       xml:space="preserve"
       style="font-style:normal;font-weight:normal;font-size:10.58333302px;line-height:1.25;font-family:sans-serif;letter-spacing:0px;word-spacing:0px;display:inline;fill:#554400;fill-opacity:1;stroke:none;stroke-width:0.26458332;"
       x="3.9991579"
       y="281.47742"
       id="text3546"><tspan
         sodipodi:role="line"
         id="tspan3544"
         x="3.9991579"
         y="281.47742"
         style="font-style:normal;font-variant:normal;font-weight:normal;font-stretch:normal;font-size:6.3499999px;font-family:'Bookman Old Style';-inkscape-font-specification:'Bookman Old Style';fill:#554400;stroke-width:0.26458332;">EndoC-βH1</tspan></text>
  </g>
  <g
     inkscape:groupmode="layer"
     id="layer5"
     inkscape:label="Calque 4"
     style="display:inline">
    <ellipse
       id="ellipse1618"
       ry="5.7976031"
       rx="14.712197"
       cy="22.479324"
       cx="22.210325"
       style="opacity:1;fill:#554400;fill-opacity:1;stroke:#000000;stroke-width:0" />
    <g
       transform="matrix(0.08311976,0,0,0.08311976,6.8448073,13.957056)"
       style="fill:none"
       id="g1646">
      <path
         style="stroke:#c1c1c1"
         inkscape:connector-curvature="0"
         d="m 8.0994,97.597 c 0.43582,-2.5661 1.5107,-5.6083 2.5964,-8.0112"
         id="path1642" />
      <path
         style="stroke:#b3b2b2"
         inkscape:connector-curvature="0"
         d="m 359.14,89.617 c 1.0343,2.0213 1.9352,5.3087 2.5093,7.4224"
         id="path1644" />
    </g>
    <g
       id="g2853"
       style="fill:#ffeeaa">
      <ellipse
         id="ellipse1650"
         ry="0.54027843"
         rx="0.91431737"
         cy="22.396204"
         cx="14.314033"
         style="fill:#ffeeaa;stroke-width:0" />
      <ellipse
         style="fill:#ffeeaa;stroke-width:0"
         cx="21.462248"
         cy="23.102722"
         rx="1.0805569"
         ry="0.54027843"
         id="ellipse1664" />
      <ellipse
         style="fill:#ffeeaa;stroke-width:0"
         cx="18.802416"
         cy="20.567404"
         rx="1.0805569"
         ry="0.54027843"
         id="ellipse1666" />
      <ellipse
         style="fill:#ffeeaa;stroke-width:0"
         cx="25.119518"
         cy="19.071249"
         rx="0.91431737"
         ry="0.54027843"
         id="ellipse1668" />
      <ellipse
         style="fill:#ffeeaa;stroke-width:0"
         cx="28.361187"
         cy="22.894924"
         rx="1.0805569"
         ry="0.54027843"
         id="ellipse1670" />
      <ellipse
         style="fill:#ffeeaa;stroke-width:0"
         cx="25.368877"
         cy="23.975481"
         rx="0.91431737"
         ry="0.54027843"
         id="ellipse1672" />
      <ellipse
         style="fill:#ffeeaa;stroke-width:0"
         cx="22.210325"
         cy="18.988129"
         rx="0.91431737"
         ry="0.54027843"
         id="ellipse1674" />
      <ellipse
         style="fill:#ffeeaa;stroke-width:0"
         cx="27.69623"
         cy="20.816763"
         rx="0.91431737"
         ry="0.54027843"
         id="ellipse1676" />
      <ellipse
         style="fill:#ffeeaa;stroke-width:0"
         cx="15.976344"
         cy="19.486847"
         rx="0.91431737"
         ry="0.54027843"
         id="ellipse1678" />
      <ellipse
         style="fill:#ffeeaa;stroke-width:0"
         cx="17.888098"
         cy="23.726122"
         rx="0.91431737"
         ry="0.54027843"
         id="ellipse1680" />
    </g>
  </g>
  <g
     inkscape:groupmode="layer"
     id="layer7"
     inkscape:label="Calque 5"
     style="display:inline">
    <path
       inkscape:connector-curvature="0"
       style="display:inline;opacity:0.07000002;stroke-width:0.08311976"
       d="m 7.6673853,20.962307 c -0.308374,-0.98073 -0.01095,-1.937106 0.880322,-2.830893 1.7451817,-1.74992 5.4351177,-3.034204 10.0641407,-3.502833 1.762554,-0.178375 3.96024,-0.226227 5.660622,-0.123233 3.952012,0.239509 7.242389,1.004419 9.629425,2.238581 2.342978,1.211221 3.347147,2.701808 2.855246,4.238194 -0.03305,0.103234 -0.07198,0.19514 -0.0864,0.204125 -0.01451,0.009 -0.04909,-0.0281 -0.0769,-0.08243 -0.08769,-0.171334 -0.377854,-0.540145 -0.610947,-0.776338 -0.501169,-0.508086 -1.18728,-0.987047 -2.05156,-1.43232 -2.354951,-1.213299 -5.572765,-1.968525 -9.49394,-2.228441 -1.080141,-0.07158 -3.386465,-0.07125 -4.447655,6.47e-4 -3.332936,0.225745 -6.091349,0.785815 -8.326106,1.690573 -1.7928937,0.725735 -3.1100087,1.642613 -3.7172817,2.587685 -0.08874,0.138136 -0.170878,0.251977 -0.182565,0.253033 -0.0116,0.0011 -0.05489,-0.105263 -0.09609,-0.236351 z"
       id="path1638" />
  </g>
  <g
     inkscape:groupmode="layer"
     id="layer9"
     inkscape:label="Calque 6"
     style="display:inline">
    <g
       transform="matrix(0.08311976,0,0,0.08311976,6.8448073,13.957056)"
       style="display:inline;fill:none;stroke:#000000"
       id="g1634">
      <g
         style="stroke-linecap:round;stroke-linejoin:round"
         id="g1628">
        <path
           style="opacity:0.6"
           inkscape:connector-curvature="0"
           d="m 362.15,102.58 c 0,38.737 -79.351,70.14 -177.24,70.14 -97.884,0 -177.24,-31.403 -177.24,-70.14 0,-38.737 79.351,-70.14 177.24,-70.14 97.884,0 177.24,31.403 177.24,70.14 z"
           id="path1624" />
        <path
           style="opacity:0.6"
           inkscape:connector-curvature="0"
           d="m 362.15,75.331 c 0,38.737 -79.351,70.14 -177.24,70.14 -97.884,0 -177.24,-31.403 -177.24,-70.14 0,-38.737 79.351,-70.14 177.24,-70.14 97.884,0 177.24,31.403 177.24,70.14 z"
           id="path1626" />
      </g>
      <path
         style="opacity:0.6"
         inkscape:connector-curvature="0"
         d="M 7.7011,104.36 V 75.02"
         id="path1630" />
      <path
         style="opacity:0.6"
         inkscape:connector-curvature="0"
         d="M 362.08,105.42 V 75.591"
         id="path1632" />
    </g>
  </g>
  <g
     inkscape:groupmode="layer"
     id="layer10"
     inkscape:label="Calque 7"
     style="display:none">
    <path
       inkscape:connector-curvature="0"
       style="display:inline;opacity:0.6;fill:none;stroke:#000000;stroke-width:0.08112489;stroke-linecap:round;stroke-linejoin:round"
       d="m 37.171054,21.359619 c 0,3.33169 -6.695298,6.0325 -14.954909,6.0325 -8.259112,0 -14.9549077,-2.700893 -14.9549077,-6.0325 0,-3.331689 6.6952967,-6.0325 14.9549077,-6.0325 8.259112,0 14.954909,2.700894 14.954909,6.0325 z"
       id="path1648" />
    <path
       inkscape:connector-curvature="0"
       style="display:inline;fill:none;stroke:#000000;stroke-width:0.41559881"
       d="m 23.136281,26.258781 v 1.163677"
       id="path1684" />
    <g
       id="g1658"
       style="display:inline;fill:none;stroke:#000000;stroke-width:0.995"
       transform="matrix(0.08311976,0,0,0.08311976,6.8448073,13.957056)">
      <path
         id="path1654"
         d="M 5.0001,90.395 5.0757,76.453"
         inkscape:connector-curvature="0"
         style="opacity:0.6" />
      <path
         id="path1656"
         d="m 364.81,90.24 0.0757,-13.942"
         inkscape:connector-curvature="0"
         style="opacity:0.6" />
    </g>
    <path
       id="path1620"
       d="m 37.170221,20.259861 c 0,3.33169 -6.695297,6.0325 -14.954908,6.0325 -8.259112,0 -14.9549069,-2.700894 -14.9549069,-6.0325 0,-3.331689 6.6952969,-6.0325 14.9549069,-6.0325 8.259112,0 14.954908,2.700894 14.954908,6.0325 z"
       inkscape:connector-curvature="0"
       style="display:inline;opacity:0.6;fill:none;stroke:#000000;stroke-width:0.08112489;stroke-linecap:round;stroke-linejoin:round" />
  </g>
  <g
     inkscape:groupmode="layer"
     id="layer8"
     inkscape:label="Calque 8"
     style="display:none">
    <g
       style="display:inline"
       id="g3009">
      <g
         id="g2750">
        <path
           inkscape:connector-curvature="0"
           style="opacity:0.12999998;fill:url(#b);stroke-width:0.08311976"
           d="M 19.878817,28.237032 C 15.144814,27.91683 11.247661,26.770051 9.0549623,25.075405 c -0.337217,-0.260597 -0.941332,-0.875666 -1.106158,-1.156196 -0.279549,-0.475736 -0.441133,-0.965353 -0.441133,-1.395248 0,-0.204367 -0.04649,-1.635548 0.01304,-1.695311 0.01814,-0.01822 0.37236,0.794226 0.46892,0.941747 0.253466,0.387297 0.998518,1.070001 1.534142,1.425338 1.2076467,0.801233 2.9508347,1.508873 4.9043157,1.987975 2.497748,0.612543 4.803823,0.887304 7.794223,0.887304 2.506892,0 4.482565,-0.209395 6.58109,-0.625518 3.840299,-0.76151 6.501295,-2.023634 7.626737,-3.674891 l 0.498694,-1.056618 0.02592,0.919803 c 0.109527,0.264188 0.0069,0.689744 -0.01945,1.032514 -0.117854,1.535388 -1.835036,3.03545 -4.755365,4.103622 -1.711354,0.625909 -3.815779,1.075986 -6.15161,1.334571 -1.682594,0.186272 -4.385565,0.249451 -6.114789,0.132477 h -0.03498 2e-6 z"
           id="path1636" />
        <path
           id="path1652"
           d="M 21.422351,26.211402 C 14.668039,26.044822 8.9518932,24.035659 7.6893041,21.384638 c -0.89254,-1.874351 0.4679642,-3.758343 3.7434649,-5.184013 4.402853,-1.916243 11.517074,-2.446049 17.388653,-1.294757 3.331357,0.653247 5.957526,1.800707 7.324597,3.200443 0.944988,0.967514 1.237653,1.934197 0.892872,2.948424 -0.175432,0.515983 -0.408724,0.868768 -0.916229,1.385357 -1.800457,1.832874 -5.709579,3.181077 -10.541248,3.635243 -0.715711,0.06729 -3.210334,0.178591 -3.528184,0.157412 -0.07711,-0.0051 -0.360998,-0.01479 -0.630871,-0.02144 z"
           inkscape:connector-curvature="0"
           style="opacity:0.05;stroke:#b3b2b2;stroke-width:0.08270416;stroke-linecap:round;stroke-linejoin:round" />
      </g>
      <path
         id="path1640"
         d="m 20.828045,25.967862 c -0.05771,-0.0056 -0.387846,-0.02502 -0.733782,-0.04315 -2.207411,-0.116036 -4.527034,-0.484689 -6.448264,-1.024784 -1.75923,-0.494563 -3.387962,-1.234827 -4.4332757,-2.01474 -0.502866,-0.375136 -1.065595,-0.974496 -1.306476,-1.391176 l -0.08254,-0.142907 0.08254,-0.142908 c 0.156763,-0.27117 0.397603,-0.565165 0.721371,-0.880571 0.573551,-0.558615 1.149713,-0.946152 2.1219647,-1.427249 2.349463,-1.162514 5.520482,-1.885988 9.329361,-2.128698 0.822853,-0.05239 3.438997,-0.05158 4.282913,0.0013 4.450564,0.278941 8.201094,1.273477 10.471427,2.776615 0.754826,0.499749 1.407967,1.138824 1.677771,1.641616 l 0.08576,0.159839 -0.08576,0.159831 c -0.04715,0.08793 -0.176994,0.274245 -0.28854,0.414078 -1.253862,1.572376 -4.108775,2.850176 -7.922062,3.546138 -0.97674,0.178217 -2.440978,0.353999 -3.683951,0.442181 -0.594988,0.04219 -3.485627,0.0838 -3.788765,0.05449 z"
         style="display:inline;opacity:0.07000002;stroke-width:0.08311976"
         inkscape:connector-curvature="0" />
      <path
         style="display:inline;opacity:0.05;stroke:#b3b2b2;stroke-width:0.08270416;stroke-linecap:round;stroke-linejoin:round"
         inkscape:connector-curvature="0"
         d="m 21.502977,27.321051 c -0.283605,-0.0043 -0.855552,-0.02628 -1.270818,-0.04895 C 13.925281,26.92793 8.8148287,24.995454 7.6137482,22.50103 7.4090741,22.075798 7.3390041,21.795185 7.3409907,21.40867 l 0.00155,-0.303196 0.088431,0.217957 c 0.1503137,0.370531 0.4194306,0.744437 0.8635311,1.199667 0.6757886,0.692704 1.4809448,1.227347 2.6496092,1.759396 2.008423,0.914318 4.511574,1.542869 7.405138,1.859223 2.375812,0.259749 5.287083,0.259999 7.721245,7.48e-4 5.67043,-0.604098 9.971046,-2.513957 10.948535,-4.862505 l 0.08838,-0.212205 -0.01708,0.395999 c -0.01869,0.432871 -0.115496,0.776721 -0.329079,1.169162 -0.464706,0.854056 -1.441962,1.688911 -2.770882,2.367334 -3.059804,1.56182 -7.542453,2.39493 -12.487081,2.320704 h -3e-6 z"
         id="path1660" />
    </g>
  </g>
</svg>
